<svg xmlns="http://www.w3.org/2000/svg" width="120" height="42" viewBox="0 0 120 42" fill="none">
  <path
    d="M3.13997 0.507507L116.494 0.708865C118.077 0.708865 119.492 0.474031 119.492 3.86939L119.354 41.1985H0.27948V3.73062C0.27948 2.05624 0.441552 0.507507 3.13997 0.507507Z"
    fill="#AAB2AB"
  />
  <path
    d="M117.752 0H2.24715C1.00833 0 0 1.00774 0 2.24643V41.493C0 41.7729 0.227561 42 0.507547 42H119.492C119.772 42 120 41.7729 120 41.493V2.24643C120 1.00774 118.992 0 117.752 0ZM2.24713 1.01501H117.752C118.432 1.01501 118.985 1.56716 118.985 2.24643C118.985 2.24643 118.985 18.0937 118.985 29.5224H36.1596C33.1337 34.9934 27.304 38.708 20.6135 38.708C13.9201 38.708 8.09185 34.9968 5.06735 29.5224H1.01511C1.01511 18.0937 1.01511 2.24643 1.01511 2.24643C1.01512 1.56717 1.5678 1.01501 2.24713 1.01501Z"
    fill="black"
  />
  <path
    d="M34.2541 19.6061C34.2589 27.1358 28.1575 33.2429 20.6276 33.2477C13.0976 33.2525 6.9889 27.1523 6.98453 19.6226C6.98453 19.6173 6.98453 19.6119 6.98453 19.6061C6.98016 12.0764 13.0811 5.96936 20.6111 5.96497C28.142 5.96015 34.2497 12.0604 34.2541 19.5901C34.2541 19.5949 34.2541 19.6008 34.2541 19.6061Z"
    fill="white"
  />
  <path
    d="M27 15H26V13C26 10.24 23.76 8 21 8C18.24 8 16 10.24 16 13V15H15C13.9 15 13 15.9 13 17V27C13 28.1 13.9 29 15 29H27C28.1 29 29 28.1 29 27V17C29 15.9 28.1 15 27 15ZM21 24C19.9 24 19 23.1 19 22C19 20.9 19.9 20 21 20C22.1 20 23 20.9 23 22C23 23.1 22.1 24 21 24ZM18 15V13C18 11.34 19.34 10 21 10C22.66 10 24 11.34 24 13V15H18Z"
    fill="black"
  />
</svg>
