<?xml version="1.0" encoding="UTF-8"?>
<svg version="1.0" viewBox="0 0 120 42" xmlns="http://www.w3.org/2000/svg" xmlnsCc="http://web.resource.org/cc/" xmlnsDc="http://purl.org/dc/elements/1.1/" xmlnsRdf="http://www.w3.org/1999/02/22-rdf-syntax-ns#">
<metadata>
<rdfRDF>
<ccWork rdfAbout="">
<dcFormat>image/svg+xml</dcFormat>
<dcType rdfResource="http://purl.org/dc/dcmitype/StillImage"/>
</ccWork>
</rdfRDF>
</metadata>
<g transform="matrix(.99378 0 0 .99367 -177.69 -223.31)">
<path d="m182.24 225.17 114.06 0.20312c1.5938 0 3.0176-0.23633 3.0176 3.1807l-0.13965 37.566h-119.82v-37.706c0-1.6846 0.16309-3.2441 2.8784-3.2441z" fill="#aab2ab" nodetypes="ccccccc"/>
<g transform="matrix(.87292 0 0 .87292 50.125 143.21)">
<path cx="296.35416" cy="264.3577" rx="22.939548" ry="22.939548" d="m187.21 115.91c0.00558 8.6802-7.0279 15.722-15.708 15.727s-15.722-7.0279-15.727-15.708v-0.01904c-0.00504-8.6813 7.0278-15.722 15.708-15.727 8.6813-0.00449 15.722 7.0279 15.727 15.708v0.01901z" fill="#fff" type="arc"/>
<g transform="translate(-289.62 99.065)">
<path d="m473.88 4.0407c3.4854 3.4848 5.2284 7.7528 5.2284 12.802 0 5.05-1.7128 9.272-5.1384 12.669-3.6353 3.5754-7.9318 5.3632-12.889 5.3632-4.8978 0-9.1199-1.7721-12.665-5.3196-3.5458-3.5453-5.3184-7.783-5.3184-12.712 0-4.928 1.7726-9.196 5.3184-12.802 3.4552-3.4871 7.6773-5.2301 12.665-5.2301 5.0482 0 9.314 1.743 12.799 5.2301zm-23.118 2.3438c-2.9468 2.9769-4.4196 6.464-4.4196 10.462 0 3.9984 1.4582 7.4552 4.3742 10.372 2.9166 2.9154 6.3885 4.3742 10.417 4.3742 4.0286 0 7.5302-1.4722 10.507-4.419 2.8259-2.7364 4.2394-6.1776 4.2394-10.327 0-4.118-1.4365-7.613-4.3077-10.485-2.8706-2.8695-6.3498-4.306-10.438-4.306-4.0884 1e-5 -7.5464 1.4432-10.372 4.3284zm7.7545 8.7037c-0.45029-0.98224-1.1243-1.4723-2.0232-1.4723-1.5891 0-2.3834 1.0695-2.3834 3.2085s0.79431 3.2085 2.3834 3.2085c1.0494 0 1.7989-0.52133 2.2486-1.564l2.2028 1.1724c-1.0499 1.8649-2.6251 2.7991-4.7255 2.7991-1.6199 0-2.9177-0.49673-3.8921-1.4901-0.97607-0.99344-1.4627-2.3628-1.4627-4.108 0-1.715 0.50229-3.0765 1.5075-4.0856 1.0052-1.008 2.257-1.5114 3.7578-1.5114 2.2201 0 3.8098 0.87372 4.7708 2.6223l-2.384 1.2206zm10.363 0c-0.45087-0.98224-1.1114-1.4723-1.9824-1.4723-1.6211 0-2.4321 1.0695-2.4321 3.2085s0.81104 3.2085 2.4321 3.2085c1.051 0 1.7872-0.52133 2.2072-1.564l2.252 1.1724c-1.0482 1.8649-2.6212 2.7991-4.7176 2.7991-1.6177 0-2.9127-0.49673-3.8865-1.4901-0.97217-0.99344-1.4594-2.3628-1.4594-4.108 0-1.715 0.49451-3.0765 1.4829-4.0856 0.98779-1.008 2.2452-1.5114 3.7734-1.5114 2.2162 0 3.8037 0.87372 4.7614 2.6223l-2.431 1.2206z"/>
</g>
</g>
<circle cx="242.56" cy="240.01" r="10.806" fill="#fff"/>
<path d="m245.69 236.88c0-0.41699-0.33789-0.75391-0.75391-0.75391h-4.7725c-0.41602 0-0.75391 0.33691-0.75391 0.75391v4.7725h1.331v5.6523h3.6172v-5.6523h1.332v-4.7725h1e-5z"/>
<circle cx="242.55" cy="233.87" r="1.6323"/>
<path d="m242.53 228.1c-3.2314 0-5.9683 1.127-8.2075 3.3838-2.2978 2.333-3.4463 5.0957-3.4463 8.2842s1.1484 5.9316 3.4463 8.2266 5.0342 3.4424 8.2075 3.4424c3.2129 0 5.998-1.1572 8.3535-3.4717 2.2207-2.1973 3.3301-4.9297 3.3301-8.1973s-1.1289-6.0283-3.3877-8.2842c-2.2588-2.2568-5.0244-3.3838-8.2959-3.3838zm0.02929 2.0996c2.6484 0 4.8975 0.93359 6.7471 2.8008 1.8701 1.8467 2.8047 4.1035 2.8047 6.7676 0 2.6836-0.91504 4.9111-2.7461 6.6807-1.9277 1.9053-4.1963 2.8584-6.8057 2.8584s-4.8584-0.94336-6.7466-2.8291c-1.8896-1.8867-2.8335-4.123-2.8335-6.71s0.9541-4.8428 2.8623-6.7676c1.8306-1.8672 4.0703-2.8008 6.7178-2.8008z" clip-rule="evenodd" fill-rule="evenodd"/>
<path d="m297.3 224.73h-116.23c-1.2466 0-2.2612 1.0146-2.2612 2.2607v39.496c0 0.28223 0.229 0.51074 0.51074 0.51074h119.73c0.28174 0 0.51074-0.22852 0.51074-0.51074v-39.496c0-1.2461-1.0142-2.2607-2.2607-2.2607zm-116.23 1.0215h116.23c0.68359 0 1.2393 0.55566 1.2393 1.2393v27.379h-83.074c-3.0449 5.5059-8.9111 9.2441-15.644 9.2441-6.7354 0-12.6-3.7354-15.644-9.2441h-4.3472v-27.379c0-0.6836 0.55615-1.2393 1.2397-1.2393z"/>
<g enable-background="new    " fill="#fff">
<path d="m239.18 257.69c0.31787 0 0.60742 0.02832 0.86914 0.08398s0.48633 0.14746 0.67383 0.27539c0.18652 0.12695 0.33203 0.29688 0.43457 0.50781 0.10254 0.21191 0.1543 0.47266 0.1543 0.78418 0 0.33594-0.07617 0.61523-0.22949 0.83984-0.15234 0.22363-0.37891 0.40723-0.67773 0.5498 0.41211 0.11816 0.71973 0.3252 0.92285 0.62109s0.30469 0.65234 0.30469 1.0693c0 0.33594-0.06543 0.62695-0.19629 0.87305s-0.30762 0.44629-0.52832 0.60156c-0.22168 0.15625-0.47461 0.27148-0.75781 0.3457-0.28418 0.0752-0.5752 0.1123-0.875 0.1123h-3.2363v-6.6641h3.1416v2e-5zm-0.18701 2.6953c0.26123 0 0.47656-0.06152 0.64502-0.18652 0.16797-0.12402 0.25195-0.3252 0.25195-0.60449 0-0.15527-0.02832-0.28223-0.08398-0.38184-0.05664-0.09961-0.13086-0.17676-0.22461-0.23242-0.09326-0.05664-0.20068-0.09473-0.32227-0.11719-0.12158-0.02148-0.24756-0.03223-0.37842-0.03223h-1.3735v1.5547h1.4858zm0.08545 2.8281c0.14355 0 0.28027-0.01367 0.41162-0.04199 0.13037-0.02832 0.24658-0.07422 0.34619-0.13965s0.17871-0.1543 0.23828-0.26562c0.05957-0.1123 0.08887-0.25488 0.08887-0.42969 0-0.3418-0.09668-0.58594-0.29004-0.73145-0.19336-0.14648-0.44873-0.21973-0.7666-0.21973h-1.5996v1.8281h1.5713v1e-5z"/>
<path d="m241.89 257.69h1.6436l1.5606 2.6318 1.5508-2.6318h1.6338l-2.4736 4.1064v2.5576h-1.4688v-2.5947l-2.4463-4.0693z"/>
</g>
<g enable-background="new    " fill="#fff">
<path d="m265.28 257.69 2.7842 4.4707h0.01562v-4.4707h1.375v6.6641h-1.4658l-2.7734-4.4619h-0.01855v4.4619h-1.375v-6.6641h1.458z"/>
<path d="m273.61 257.69c0.43066 0 0.83008 0.06836 1.2012 0.20508 0.37109 0.1377 0.69141 0.34277 0.96289 0.61621 0.27051 0.27344 0.48242 0.61621 0.63477 1.0264 0.15332 0.41113 0.22949 0.89355 0.22949 1.4473 0 0.48535-0.0625 0.93359-0.18652 1.3438-0.125 0.41113-0.31348 0.76562-0.56543 1.0644-0.25293 0.29785-0.56738 0.5332-0.94434 0.7041-0.37695 0.17188-0.82031 0.25684-1.332 0.25684h-2.8779v-6.6641h2.8779v-1e-5zm-0.10254 5.4297c0.21191 0 0.41699-0.03418 0.61621-0.10254s0.37695-0.18164 0.53223-0.33984c0.15527-0.15918 0.28027-0.36523 0.37402-0.62012 0.09277-0.25488 0.13965-0.56543 0.13965-0.93262 0-0.33594-0.03223-0.63867-0.09766-0.90918s-0.17285-0.50195-0.32227-0.69434-0.34668-0.33984-0.59277-0.44336c-0.24609-0.10156-0.5498-0.15332-0.91016-0.15332h-1.0459v4.1953h1.3066v1e-5z"/>
</g>
<g transform="matrix(.625 0 0 .625 -183.01 316.93)">
<path cx="475.97119" cy="252.08646" rx="29.209877" ry="29.209877" d="m743.93-123.4c0.00629 9.411-7.6188 17.047-17.031 17.055-9.411 0.0047-17.047-7.6172-17.055-17.031v-0.02344c-0.00623-9.4126 7.6188-17.047 17.031-17.055s17.047 7.6173 17.055 17.03v0.02499z" fill="#fff" type="arc"/>
<g transform="translate(-23.952 -87.921)">
<path d="m750.57-54.149c-5.1735 0-9.55 1.8031-13.133 5.4125-3.6766 3.7344-5.5141 8.1532-5.5141 13.258 0 5.1032 1.8375 9.4891 5.5141 13.163 3.6766 3.6719 8.0532 5.5079 13.133 5.5079 5.1392 0 9.5955-1.8532 13.366-5.5548 3.5516-3.5172 5.3282-7.8891 5.3282-13.116 0-5.2297-1.8079-9.6469-5.422-13.258-3.614-3.6094-8.0391-5.4125-13.272-5.4125zm0.04688 3.3578c4.236 0 7.8345 1.4953 10.795 4.4844 2.9907 2.9547 4.486 6.5626 4.486 10.828 0 4.2938-1.464 7.8563-4.3938 10.688-3.0844 3.05-6.7141 4.5735-10.888 4.5735-4.1766 0-7.775-1.5078-10.797-4.5281-3.0219-3.0172-4.5328-6.5954-4.5328-10.733 0-4.1407 1.5266-7.7485 4.5797-10.828 2.9298-2.9891 6.5125-4.4844 10.75-4.4844z"/>
<path d="m757.65-39.904h-13.574v3.2141h13.574v-3.2141zm0 6.0001h-13.574v3.2141h13.574v-3.2141z"/>
</g>
</g>
</g>
</svg>
