<?xml version="1.0" encoding="UTF-8"?>
<svg version="1.0" viewBox="0 0 120 42" xmlns="http://www.w3.org/2000/svg" xmlnsCc="http://web.resource.org/cc/" xmlnsDc="http://purl.org/dc/elements/1.1/" xmlnsRdf="http://www.w3.org/1999/02/22-rdf-syntax-ns#">
<metadata>
<rdfRDF>
<ccWork rdfAbout="">
<dcFormat>image/svg+xml</dcFormat>
<dcType rdfResource="http://purl.org/dc/dcmitype/StillImage"/>
</ccWork>
</rdfRDF>
</metadata>
<g transform="matrix(.99378 0 0 .99369 -177.69 -148.88)">
<path d="m182.24 150.26 114.06 0.20264c1.5938 0 3.0176-0.23633 3.0176 3.1802l-0.13965 37.567h-119.82v-37.706c0-1.6851 0.16309-3.2437 2.8784-3.2437z" fill="#aab2ab" nodetypes="ccccccc"/>
<g transform="matrix(.87292 0 0 .87292 50.125 143.21)">
<path cx="296.35416" cy="264.3577" rx="22.939548" ry="22.939548" d="m187.21 30.094c0.00558 8.6802-7.0279 15.722-15.708 15.727-8.6802 0.00504-15.722-7.0279-15.727-15.708v-0.01904c-0.00504-8.6808 7.0278-15.722 15.708-15.727 8.6813-0.00504 15.722 7.0279 15.727 15.708v0.01901z" fill="#fff" type="arc"/>
<g transform="translate(-289.62 99.065)">
<path d="m473.88-81.773c3.4854 3.4854 5.2284 7.7534 5.2284 12.802 0 5.0494-1.7128 9.272-5.1384 12.668-3.6353 3.576-7.9318 5.3638-12.889 5.3638-4.8978 0-9.1199-1.7726-12.665-5.3196-3.5458-3.5453-5.3184-7.783-5.3184-12.712 0-4.9286 1.7726-9.196 5.3184-12.802 3.4552-3.4871 7.6773-5.2295 12.665-5.2295 5.0482-1e-5 9.314 1.7424 12.799 5.2295zm-23.118 2.3443c-2.9468 2.9764-4.4196 6.4634-4.4196 10.462 0 3.9984 1.4582 7.4552 4.3742 10.371 2.9166 2.916 6.3885 4.3742 10.417 4.3742 4.0286 0 7.5302-1.4723 10.507-4.419 2.8259-2.7359 4.2394-6.1771 4.2394-10.326 0-4.118-1.4365-7.613-4.3077-10.484-2.8706-2.8707-6.3498-4.3066-10.438-4.3066-4.0884 0-7.5464 1.4431-10.372 4.3284zm7.7545 8.7037c-0.45029-0.98224-1.1243-1.4728-2.0232-1.4728-1.5891 0-2.3834 1.0701-2.3834 3.2085 0 2.1396 0.79431 3.2091 2.3834 3.2091 1.0494 0 1.7989-0.52078 2.2486-1.5645l2.2028 1.173c-1.0499 1.8655-2.6251 2.7985-4.7255 2.7985-1.6199 0-2.9177-0.4967-3.8921-1.4896-0.97607-0.99344-1.4627-2.3628-1.4627-4.108 0-1.715 0.50229-3.0771 1.5075-4.085 1.0052-1.0085 2.257-1.5125 3.7578-1.5125 2.2201 0 3.8098 0.87427 4.7708 2.6223l-2.384 1.2211zm10.363 0c-0.45087-0.98224-1.1114-1.4728-1.9824-1.4728-1.6211 0-2.4321 1.0701-2.4321 3.2085 0 2.1396 0.81104 3.2091 2.4321 3.2091 1.051 0 1.7872-0.52078 2.2072-1.5645l2.252 1.173c-1.0482 1.8655-2.6212 2.7985-4.7176 2.7985-1.6177 0-2.9127-0.4967-3.8865-1.4896-0.97217-0.99344-1.4594-2.3628-1.4594-4.108 0-1.715 0.49451-3.0771 1.4829-4.085 0.98779-1.0085 2.2452-1.5125 3.7734-1.5125 2.2162 0 3.8037 0.87427 4.7614 2.6223l-2.431 1.2211z"/>
</g>
</g>
<path d="m297.3 149.82h-116.23c-1.2466 0-2.2612 1.0137-2.2612 2.2602v39.496c0 0.28174 0.229 0.51025 0.51074 0.51025h119.73c0.28174 0 0.51074-0.22852 0.51074-0.51025v-39.496c0-1.2466-1.0142-2.2602-2.2607-2.2602zm-116.23 1.0205h116.23c0.68359 0 1.2393 0.55615 1.2393 1.2398v27.381h-83.074c-3.0449 5.5059-8.9111 9.2436-15.644 9.2436-6.7354 0-12.6-3.7349-15.644-9.2436h-4.3472v-27.381c0-0.68359 0.55615-1.2398 1.2397-1.2398z"/>
<g enable-background="new    " fill="#fff">
<path d="m239.18 182.78c0.31787 0 0.60742 0.02832 0.86914 0.08398s0.48633 0.14746 0.67383 0.27539c0.18652 0.12695 0.33203 0.29688 0.43457 0.50781 0.10254 0.21191 0.1543 0.47266 0.1543 0.78418 0 0.33594-0.07617 0.61523-0.22949 0.83887-0.15234 0.22461-0.37891 0.40723-0.67773 0.55078 0.41211 0.11816 0.71973 0.3252 0.92285 0.62109s0.30469 0.65234 0.30469 1.0693c0 0.33594-0.06543 0.62695-0.19629 0.87305-0.13086 0.24512-0.30762 0.44629-0.52832 0.60156-0.22168 0.15625-0.47461 0.27148-0.75781 0.3457-0.28418 0.0752-0.5752 0.1123-0.875 0.1123h-3.2363v-6.6641h3.1416v1e-5zm-0.18701 2.6953c0.26123 0 0.47656-0.0625 0.64502-0.18652 0.16797-0.12402 0.25195-0.3252 0.25195-0.60449 0-0.15527-0.02832-0.2832-0.08398-0.38184-0.05664-0.09961-0.13086-0.17676-0.22461-0.2334-0.09326-0.05566-0.20068-0.09473-0.32227-0.11621s-0.24756-0.03223-0.37842-0.03223h-1.3735v1.5547h1.4858zm0.08545 2.8281c0.14355 0 0.28027-0.01367 0.41162-0.04199 0.13037-0.02832 0.24658-0.0752 0.34619-0.13965 0.09961-0.06543 0.17871-0.1543 0.23828-0.2666 0.05957-0.11133 0.08887-0.25488 0.08887-0.42871 0-0.3418-0.09668-0.58594-0.29004-0.73242-0.19336-0.14551-0.44873-0.21875-0.7666-0.21875h-1.5996v1.8281h1.5713z"/>
<path d="m241.89 182.78h1.6436l1.5606 2.6318 1.5508-2.6318h1.6338l-2.4736 4.1064v2.5576h-1.4688v-2.5947l-2.4463-4.0693z"/>
</g>
<g enable-background="new    " fill="#fff">
<path d="m265.78 182.78 2.7842 4.4707h0.01562v-4.4707h1.375v6.6641h-1.4658l-2.7734-4.4619h-0.01855v4.4619h-1.375v-6.6641h1.458z"/>
<path d="m275.52 184.55c-0.08691-0.14062-0.19629-0.26367-0.32715-0.36914s-0.27832-0.18848-0.44336-0.24707c-0.16504-0.05957-0.33789-0.08887-0.51758-0.08887-0.33008 0-0.61035 0.06348-0.84082 0.19141-0.23047 0.12695-0.41699 0.29785-0.55957 0.5127-0.14355 0.21484-0.24805 0.45898-0.31348 0.73242s-0.09766 0.55664-0.09766 0.84863c0 0.28027 0.03223 0.55273 0.09766 0.81641 0.06543 0.26465 0.16992 0.50293 0.31348 0.71387 0.14258 0.21191 0.3291 0.38086 0.55957 0.50879s0.51074 0.19141 0.84082 0.19141c0.44727 0 0.79785-0.13672 1.0498-0.41113 0.25195-0.27344 0.40625-0.63477 0.46191-1.083h1.419c-0.03711 0.41699-0.13379 0.79395-0.28906 1.1299-0.15527 0.33691-0.36133 0.62305-0.61621 0.86035s-0.55371 0.41797-0.89648 0.54297c-0.3418 0.125-0.71875 0.1875-1.1289 0.1875-0.51074 0-0.96973-0.08887-1.3779-0.2666-0.40723-0.17676-0.75195-0.42188-1.0322-0.73242-0.28125-0.31152-0.49609-0.67773-0.64551-1.0977-0.14941-0.4209-0.22461-0.87305-0.22461-1.3594 0-0.49805 0.0752-0.95996 0.22461-1.3867s0.36426-0.79883 0.64551-1.1162c0.28027-0.31738 0.625-0.56641 1.0322-0.74707 0.4082-0.18066 0.86719-0.27051 1.3779-0.27051 0.36719 0 0.71387 0.05273 1.041 0.15918 0.32617 0.10547 0.61914 0.25977 0.87695 0.46289 0.25879 0.20215 0.47168 0.45312 0.63965 0.75195s0.27344 0.6416 0.31738 1.0273h-1.419c-0.0244-0.16796-0.08104-0.32226-0.16796-0.46191z"/>
</g>
<g transform="matrix(1.1468 0 0 1.1468 457.94 166.15)">
<path cx="475.97119" cy="252.08646" rx="29.209877" ry="29.209877" d="m-154.14-1.0944c0.00342 4.8269-3.906 8.7419-8.7334 8.7457-4.8265 0.00299-8.7419-3.9069-8.7453-8.7329v-0.01276c-0.0034-4.8274 3.906-8.7423 8.7325-8.7462 4.8274-0.00299 8.7428 3.9069 8.7462 8.7329 1e-5 0.00427 1e-5 0.00894 1e-5 0.01321z" fill="#fff" type="arc"/>
<path d="m-162.9-11.269c2.8518 0 5.2634 0.98352 7.233 2.9502 1.9696 1.9675 2.9548 4.376 2.9548 7.2249 0 2.8488-0.9682 5.2314-2.9038 7.1482-2.0548 2.0181-4.4825 3.0264-7.2841 3.0264-2.7683 0-5.1535-1.0006-7.1572-3.0017-2.0037-2.0003-3.0051-4.3918-3.0051-7.1729 0-2.7816 1.0014-5.1901 3.0051-7.2249 1.9526-1.9666 4.3386-2.9502 7.1572-2.9502zm-7.8733 7.4412c-0.30315 0.8588-0.45471 1.7699-0.45471 2.7339 0 2.2553 0.82259 4.2049 2.4694 5.8505 1.6469 1.6444 3.608 2.4674 5.8841 2.4674 2.2753 0 4.2526-0.83069 5.9335-2.4933 0.56287-0.54327 1.027-1.1368 1.3906-1.7797l-3.8362-1.7078c-0.25974 1.2905-1.4093 2.162-2.7999 2.2642v1.569h-1.1683v-1.569c-1.1419-0.01276-2.2455-0.47983-3.0885-1.2181l1.4008-1.4131c0.67528 0.63522 1.3505 0.9205 2.2719 0.9205 0.59695 0 1.2586-0.23376 1.2586-1.0116 0-0.27548-0.1073-0.46707-0.27502-0.61099l-0.96991-0.43256-1.2083-0.53732c-0.59692-0.26654-1.1027-0.49094-1.6111-0.71744l-5.197-2.3145zm7.8989-5.6099c-2.3094 0-4.262 0.81366-5.8577 2.4422-0.43513 0.43857-0.81236 0.89667-1.1342 1.3744l3.8907 1.732c0.35085-1.0793 1.3761-1.7342 2.621-1.8065v-1.569h1.1683v1.569c0.80469 0.03873 1.6869 0.25928 2.5563 0.93286l-1.3369 1.3744c-0.49304-0.34955-1.1155-0.59607-1.7388-0.59607-0.5058 0-1.2194 0.155-1.2194 0.78979 0 0.0975 0.03151 0.18268 0.09113 0.25845l1.3011 0.57904 0.88049 0.39258c0.56287 0.25162 1.101 0.49005 1.6341 0.72763l5.2131 2.3209c0.17285-0.6825 0.25885-1.4089 0.25885-2.1778 0-2.3243-0.81491-4.2905-2.4448-5.9016-1.6136-1.6285-3.5747-2.4422-5.8832-2.4422z"/>
</g>
<circle cx="242.56" cy="165.14" r="10.806" fill="#fff"/>
<path d="m245.69 162.01c0-0.4165-0.33789-0.75391-0.75391-0.75391h-4.7725c-0.41602 0-0.75391 0.3374-0.75391 0.75391v4.773h1.331v5.6519h3.6172v-5.6519h1.332v-4.773h1e-5z"/>
<circle cx="242.55" cy="158.99" r="1.6323"/>
<path d="m242.53 153.23c-3.2314 0-5.9683 1.1274-8.2075 3.3838-2.2978 2.3335-3.4463 5.0957-3.4463 8.2847s1.1484 5.9316 3.4463 8.2266c2.2978 2.2944 5.0342 3.4419 8.2075 3.4419 3.2129 0 5.998-1.1562 8.3535-3.4712 2.2207-2.1973 3.3301-4.9297 3.3301-8.1973s-1.1289-6.0288-3.3877-8.2847c-2.2588-2.2563-5.0244-3.3838-8.2959-3.3838zm0.02929 2.0996c2.6484 0 4.8975 0.93408 6.7471 2.8008 1.8701 1.8477 2.8047 4.1035 2.8047 6.7681 0 2.6836-0.91504 4.9106-2.7461 6.6802-1.9277 1.9062-4.1963 2.8589-6.8057 2.8589s-4.8584-0.94336-6.7466-2.8296c-1.8896-1.8867-2.8335-4.123-2.8335-6.7095 0-2.5869 0.9541-4.8428 2.8623-6.7681 1.8306-1.8667 4.0703-2.8008 6.7178-2.8008z" clip-rule="evenodd" fill-rule="evenodd"/>
</g>
</svg>
