<?xml version="1.0" encoding="UTF-8"?>
<svg version="1.0" viewBox="0 0 120 42" xmlns="http://www.w3.org/2000/svg" xmlnsCc="http://web.resource.org/cc/" xmlnsDc="http://purl.org/dc/elements/1.1/" xmlnsRdf="http://www.w3.org/1999/02/22-rdf-syntax-ns#">
<metadata>
<rdfRDF>
<ccWork rdfAbout="">
<dcFormat>image/svg+xml</dcFormat>
<dcType rdfResource="http://purl.org/dc/dcmitype/StillImage"/>
</ccWork>
</rdfRDF>
</metadata>
<g transform="matrix(.99378 0 0 .99367 -437.12 -74.437)">
<path d="m443.29 75.367 114.06 0.20264c1.5938 0 3.0176-0.23633 3.0176 3.1807l-0.13965 37.567h-119.82v-37.707c0-1.6851 0.16308-3.2436 2.8789-3.2436z" fill="#aab2ab" nodetypes="ccccccc"/>
<path d="m558.35 74.911h-116.23c-1.2471 0-2.2617 1.0146-2.2617 2.2612v39.496c0 0.28174 0.22852 0.51025 0.51074 0.51025h119.73c0.28223 0 0.51074-0.22852 0.51074-0.51025v-39.496c0-1.2466-1.0146-2.2612-2.2607-2.2612zm-116.23 1.0215h116.23c0.68359 0 1.2393 0.55615 1.2393 1.2398v27.394h-83.073c-3.0449 5.5059-8.9121 9.2441-15.645 9.2441-6.7344 0-12.6-3.7349-15.643-9.2441h-4.3477v-27.394c-1e-5 -0.6836 0.55663-1.2398 1.2402-1.2398z"/>
<g transform="matrix(.87292 0 0 .87292 50.125 143.21)">
<path cx="296.35416" cy="264.3577" rx="22.939548" ry="22.939548" d="m486.27-55.707c0.00555 8.6808-7.0279 15.722-15.708 15.727-8.6802 0.00562-15.722-7.0279-15.727-15.708v-0.01898c-0.00562-8.6808 7.0278-15.722 15.708-15.727 8.6813-5e-3 15.723 7.0278 15.727 15.708v0.01904z" fill="#fff" type="arc"/>
<g transform="translate(-289.62 99.065)">
<path d="m772.94-167.57c3.4849 3.4854 5.2278 7.7534 5.2278 12.802 0 5.0494-1.7128 9.272-5.1383 12.668-3.6359 3.576-7.9318 5.3637-12.89 5.3637-4.8978 0-9.1199-1.7726-12.664-5.3196-3.5464-3.5453-5.3185-7.7824-5.3185-12.712 0-4.9286 1.7721-9.196 5.3185-12.802 3.4546-3.4865 7.6766-5.2295 12.664-5.2295 5.0488 0 9.3146 1.743 12.801 5.2295zm-23.119 2.3448c-2.9468 2.9764-4.4202 6.4629-4.4202 10.462s1.4589 7.4558 4.3743 10.371c2.9176 2.9165 6.389 4.3748 10.418 4.3748s7.5302-1.4728 10.507-4.419c2.8259-2.7364 4.2389-6.1777 4.2389-10.327 0-4.1175-1.4364-7.6129-4.3082-10.484-2.8706-2.8706-6.3498-4.3065-10.438-4.3065s-7.547 1.4432-10.372 4.3289zm7.7539 8.7032c-0.44971-0.98169-1.1232-1.4728-2.0227-1.4728-1.5886 0-2.3829 1.0701-2.3829 3.2091 0 2.1395 0.79431 3.2085 2.3829 3.2085 1.0494 0 1.799-0.52075 2.2487-1.5646l2.2028 1.173c-1.0504 1.8655-2.6256 2.799-4.7255 2.799-1.62 0-2.9177-0.4967-3.8921-1.4896-0.97546-0.99341-1.4633-2.3633-1.4633-4.1085 0-1.715 0.50342-3.0765 1.5081-4.085 1.0045-1.0085 2.2576-1.5126 3.7578-1.5126 2.2206 0 3.8092 0.87488 4.7714 2.6229l-2.3851 1.2206zm10.364 0c-0.45081-0.98169-1.1121-1.4728-1.9824-1.4728-1.621 0-2.4321 1.0701-2.4321 3.2091 0 2.1395 0.81116 3.2085 2.4321 3.2085 1.0516 0 1.7877-0.52075 2.2073-1.5646l2.252 1.173c-1.0482 1.8655-2.6211 2.799-4.7176 2.799-1.6177 0-2.912-0.4967-3.8865-1.4896-0.97217-0.99341-1.46-2.3633-1.46-4.1085 0-1.715 0.49451-3.0765 1.4835-4.085 0.98779-1.0085 2.2452-1.5126 3.7734-1.5126 2.2162 0 3.8037 0.87488 4.7614 2.6229l-2.431 1.2206z"/>
</g>
</g>
<circle cx="491.95" cy="90.232" r="10.806" fill="#fff"/>
<path d="m495.07 87.105c0-0.4165-0.33789-0.75391-0.75391-0.75391h-4.7725c-0.41602 0-0.75391 0.3374-0.75391 0.75391v4.773h1.331v5.6519h3.6172v-5.6519h1.332v-4.773h1e-5z"/>
<circle cx="491.93" cy="84.09" r="1.6323"/>
<path d="m491.92 78.325c-3.2314 0-5.9678 1.1279-8.207 3.3838-2.2978 2.3335-3.4463 5.0957-3.4463 8.2847s1.1484 5.9316 3.4463 8.227c2.2978 2.294 5.0342 3.4419 8.207 3.4419 3.2129 0 5.998-1.1567 8.3545-3.4717 2.2197-2.1973 3.3291-4.9297 3.3291-8.1973s-1.1289-6.0288-3.3877-8.2847-5.0234-3.3838-8.2959-3.3838zm0.03027 2.0996c2.6484 0 4.8965 0.93408 6.7461 2.8013 1.8701 1.8472 2.8047 4.1035 2.8047 6.7676 0 2.6836-0.91504 4.9106-2.7461 6.6807-1.9277 1.9058-4.1963 2.8584-6.8047 2.8584-2.6104 0-4.8594-0.94287-6.748-2.8296-1.8887-1.8862-2.833-4.1226-2.833-6.7095s0.9541-4.8423 2.8623-6.7676c1.8311-1.8672 4.0703-2.8013 6.7188-2.8013z" clip-rule="evenodd" fill-rule="evenodd"/>
<g enable-background="new    " fill="#fff">
<path d="m488.56 107.87c0.31738 0 0.60742 0.02832 0.86914 0.08398s0.48633 0.14746 0.67383 0.27539c0.18652 0.12695 0.33105 0.29688 0.43457 0.50781 0.10254 0.21191 0.1543 0.47266 0.1543 0.78418 0 0.33594-0.07617 0.61523-0.22949 0.83887-0.15234 0.22461-0.37891 0.40723-0.67773 0.55078 0.41211 0.11816 0.71973 0.3252 0.92285 0.62109s0.30469 0.65234 0.30469 1.0693c0 0.33594-0.06543 0.62695-0.19629 0.87305-0.13086 0.24512-0.30762 0.44629-0.5293 0.60156-0.2207 0.15625-0.47363 0.27148-0.75684 0.3457-0.28418 0.0752-0.5752 0.1123-0.875 0.1123h-3.2363v-6.6641h3.1416v1e-5zm-0.1875 2.6953c0.26172 0 0.47656-0.0625 0.64453-0.18652 0.16895-0.12402 0.25293-0.3252 0.25293-0.60449 0-0.15527-0.02832-0.2832-0.08398-0.38184-0.05664-0.09961-0.13086-0.17676-0.22461-0.2334-0.09375-0.05566-0.20117-0.09473-0.32227-0.11621-0.12207-0.02148-0.24805-0.03223-0.37891-0.03223h-1.373v1.5547h1.4854zm0.08594 2.8281c0.14355 0 0.28027-0.01367 0.41113-0.04199s0.24609-0.0752 0.34668-0.13965c0.09961-0.06543 0.17871-0.1543 0.23828-0.2666 0.05859-0.11133 0.08887-0.25488 0.08887-0.42871 0-0.3418-0.09668-0.58594-0.29004-0.73242-0.19336-0.14551-0.44922-0.21875-0.7666-0.21875h-1.5996v1.8281h1.5713z"/>
<path d="m491.27 107.87h1.6426l1.5606 2.6318 1.5518-2.6318h1.6338l-2.4746 4.1064v2.5576h-1.4688v-2.5947l-2.4453-4.0693z"/>
</g>
<g enable-background="new    " fill="#fff">
<path d="m538.92 112.88c0.08105 0.15527 0.1875 0.28125 0.32129 0.37793s0.29004 0.16797 0.4707 0.21484c0.17969 0.04688 0.36523 0.07031 0.55859 0.07031 0.12988 0 0.26953-0.01074 0.41895-0.0332 0.14844-0.02148 0.28809-0.06348 0.41895-0.12598 0.12988-0.06152 0.23828-0.14746 0.32617-0.25684 0.08594-0.1084 0.12988-0.24707 0.12988-0.41504 0-0.18066-0.05762-0.32617-0.17285-0.43848-0.11426-0.1123-0.26562-0.20508-0.45117-0.28027-0.18652-0.07422-0.39844-0.13965-0.63379-0.19629-0.23633-0.05566-0.47559-0.11816-0.71777-0.18652-0.24902-0.0625-0.49121-0.13867-0.72754-0.22852-0.23535-0.08984-0.44727-0.20703-0.63379-0.35059-0.18555-0.14258-0.33691-0.32129-0.45117-0.53613-0.11523-0.21484-0.17285-0.47461-0.17285-0.7793 0-0.34277 0.07324-0.63965 0.21875-0.8916 0.14648-0.25195 0.33789-0.46191 0.57324-0.63086 0.23633-0.16797 0.50391-0.29199 0.80273-0.37305 0.29785-0.08105 0.59668-0.12109 0.89453-0.12109 0.34863 0 0.68262 0.03906 1.0029 0.11719 0.31934 0.07715 0.60449 0.2041 0.85254 0.37793 0.24902 0.1748 0.44629 0.39746 0.59277 0.66797 0.14551 0.27148 0.21875 0.59961 0.21875 0.98535h-1.4219c-0.0127-0.19922-0.05371-0.36426-0.125-0.49414-0.07129-0.13086-0.16602-0.2334-0.28418-0.30859-0.11719-0.07422-0.25195-0.12793-0.40332-0.1582-0.15137-0.03125-0.31738-0.04688-0.49707-0.04688-0.11719 0-0.23535 0.0127-0.35254 0.03711-0.11816 0.02539-0.22461 0.06836-0.32031 0.13086-0.09668 0.0625-0.1748 0.13965-0.2373 0.2334-0.06152 0.09375-0.09277 0.21191-0.09277 0.35449 0 0.13086 0.02441 0.2373 0.07422 0.31738 0.0498 0.08105 0.14746 0.15625 0.29395 0.22461s0.34766 0.13672 0.60547 0.20508 0.5957 0.15625 1.0117 0.26172c0.12402 0.02441 0.29688 0.07031 0.5166 0.13574 0.2207 0.06543 0.44043 0.16895 0.65723 0.3125 0.21777 0.14355 0.40527 0.33496 0.56445 0.57422 0.1582 0.23926 0.2373 0.5459 0.2373 0.91992 0 0.30469-0.05957 0.58789-0.17773 0.84961s-0.29395 0.4873-0.52734 0.67676c-0.2334 0.19043-0.52246 0.33789-0.86816 0.44336-0.34473 0.10645-0.74414 0.15918-1.1992 0.15918-0.36719 0-0.72266-0.0459-1.0684-0.13574-0.3457-0.09082-0.65039-0.23242-0.91406-0.42578-0.26465-0.19336-0.47461-0.44043-0.63086-0.73926-0.15527-0.29883-0.23047-0.65332-0.22363-1.0644h1.4219c-3e-5 0.22364 0.04001 0.41407 0.12107 0.56934z"/>
<path d="m547.17 107.87 2.4922 6.6641h-1.5215l-0.50391-1.4844h-2.4922l-0.52344 1.4844h-1.4746l2.5205-6.6641h1.5029zm0.08399 4.0859-0.83984-2.4434h-0.01953l-0.86719 2.4434h1.7266z"/>
</g>
<g enable-background="new    " fill="#fff">
<path d="m512.83 107.87 2.7842 4.4707h0.01562v-4.4707h1.375v6.6641h-1.4658l-2.7734-4.4619h-0.01855v4.4619h-1.375v-6.6641h1.458z"/>
<path d="m522.57 109.64c-0.08691-0.14062-0.19629-0.26367-0.32715-0.36914s-0.27832-0.18848-0.44336-0.24707c-0.16504-0.05957-0.33789-0.08887-0.51758-0.08887-0.33008 0-0.61035 0.06348-0.84082 0.19141-0.23047 0.12695-0.41699 0.29785-0.55957 0.5127-0.14355 0.21484-0.24805 0.45898-0.31348 0.73242s-0.09766 0.55664-0.09766 0.84863c0 0.28027 0.03223 0.55273 0.09766 0.81641 0.06543 0.26465 0.16992 0.50293 0.31348 0.71387 0.14258 0.21191 0.3291 0.38086 0.55957 0.50879s0.51074 0.19141 0.84082 0.19141c0.44727 0 0.79785-0.13672 1.0498-0.41113 0.25195-0.27344 0.40625-0.63477 0.46191-1.083h1.419c-0.03711 0.41699-0.13379 0.79395-0.28906 1.1299-0.15527 0.33691-0.36133 0.62305-0.61621 0.86035s-0.55371 0.41797-0.89648 0.54297c-0.3418 0.125-0.71875 0.1875-1.1289 0.1875-0.51074 0-0.96973-0.08887-1.3779-0.2666-0.40723-0.17676-0.75195-0.42188-1.0322-0.73242-0.28027-0.31152-0.49609-0.67773-0.64551-1.0977-0.14941-0.4209-0.22461-0.87305-0.22461-1.3594 0-0.49805 0.0752-0.95996 0.22461-1.3867s0.36523-0.79883 0.64551-1.1162 0.625-0.56641 1.0322-0.74707c0.4082-0.18066 0.86719-0.27051 1.3779-0.27051 0.36719 0 0.71387 0.05273 1.04 0.15918 0.32715 0.10547 0.62012 0.25977 0.87793 0.46289 0.25879 0.20215 0.47168 0.45312 0.63965 0.75195s0.27344 0.6416 0.31738 1.0273h-1.419c-0.02538-0.16797-0.08105-0.32226-0.16796-0.46191z"/>
</g>
<g transform="matrix(.625 0 0 .625 152.3 316.93)">
<path cx="475.97119" cy="252.08646" rx="29.209877" ry="29.209877" d="m644.58-363.12c0.00781 9.4118-7.6173 17.048-17.03 17.055-9.4126 0.00549-17.047-7.6172-17.055-17.031v-0.02344c-0.00623-9.4118 7.6189-17.048 17.03-17.055 9.4126-0.00702 17.047 7.618 17.055 17.029v0.02576z" fill="#fff" type="arc"/>
<g transform="translate(-23.952 -89.73)">
<path d="m651.36-292.06c-5.1719 0-9.55 1.8055-13.131 5.4133-3.6765 3.7344-5.5156 8.154-5.5156 13.257s1.8391 9.4899 5.5156 13.163c3.675 3.6719 8.0532 5.5079 13.131 5.5079 5.1408 0 9.5955-1.8524 13.366-5.554 3.5516-3.5172 5.3282-7.8892 5.3282-13.117 0-5.2274-1.8063-9.647-5.422-13.257-3.614-3.6078-8.0375-5.4133-13.272-5.4133zm0.04687 3.361c4.2376 0 7.8345 1.493 10.795 4.4813 2.9907 2.9554 4.486 6.5633 4.486 10.828 0 4.2938-1.464 7.8563-4.3938 10.69-3.0828 3.0485-6.7141 4.5727-10.888 4.5727-4.175 0-7.7734-1.5094-10.795-4.5274-3.0218-3.0187-4.5328-6.5961-4.5328-10.735s1.525-7.7485 4.5797-10.828c2.9282-2.9883 6.511-4.4813 10.749-4.4813z"/>
<path d="m643.09-276.02c0.74377-4.6985 4.05-7.2094 8.1954-7.2094 5.9594 0 9.5922 4.325 9.5922 10.092 0 5.6282-3.8656 9.9985-9.686 9.9985-4.0046 0-7.5906-2.4633-8.2422-7.3008h4.7031c0.14062 2.511 1.7704 3.3953 4.0985 3.3953 2.6532 0 4.3766-2.4648 4.3766-6.2321 0-3.9547-1.489-6.0461-4.2844-6.0461-2.0485 0-3.8173 0.74451-4.1907 3.3024l1.3672-0.0094-3.7015 3.7032-3.7017-3.7032 1.4735 0.0094z"/>
</g>
</g>
<g transform="matrix(1.1468 0 0 1.1468 -85.925 166.15)">
<path cx="475.97119" cy="252.08646" rx="29.209877" ry="29.209877" d="m536.24-66.415c0.00427 5.2284-4.2313 9.4678-9.458 9.4725-5.2276 0.00342-9.4691-4.2313-9.4725-9.4589v-0.01364c-0.00421-5.2276 4.2313-9.4678 9.4581-9.4725 5.2276-0.00342 9.4691 4.2317 9.4725 9.4589v0.01361z" fill="#fff" type="arc"/>
<path d="m526.76-76.59c2.8527 0 5.2634 0.98395 7.233 2.9502 1.9705 1.9675 2.9548 4.376 2.9548 7.2248s-0.9682 5.2314-2.9029 7.1482c-2.0556 2.0181-4.4833 3.0268-7.2849 3.0268-2.7675 0-5.1535-1.0006-7.1563-3.0016-2.0037-2.0003-3.0059-4.3922-3.0059-7.1734s1.0023-5.1897 3.0059-7.2248c1.9526-1.9662 4.3377-2.9502 7.1563-2.9502zm-7.8724 7.4416c-0.30402 0.85834-0.45557 1.7695-0.45557 2.7334 0 2.2557 0.82343 4.2053 2.4703 5.8505 1.6468 1.6447 3.608 2.4674 5.8833 2.4674 2.2753 0 4.2534-0.83069 5.9343-2.4929 0.56201-0.5437 1.0261-1.1368 1.3897-1.7797l-3.8353-1.7082c-0.2597 1.2909-1.4101 2.162-2.8007 2.2646v1.569h-1.1683v-1.569c-1.141-0.01318-2.2446-0.48026-3.0885-1.2185l1.4016-1.4127c0.67523 0.63483 1.3497 0.9201 2.2711 0.9201 0.59778 0 1.2594-0.23334 1.2594-1.0116 0-0.27505-0.1073-0.46707-0.27502-0.61099l-0.96991-0.43216-1.2083-0.53775c-0.59778-0.26608-1.1036-0.49091-1.6112-0.71741l-5.1969-2.314zm7.898-5.6099c-2.3094 0-4.2611 0.81363-5.8577 2.4422-0.43433 0.43811-0.81238 0.89624-1.1334 1.3744l3.8898 1.7316c0.35168-1.0789 1.377-1.7337 2.621-1.8066v-1.5689h1.1683v1.5689c0.80469 0.03918 1.6869 0.25974 2.5571 0.93329l-1.3369 1.374c-0.4939-0.34955-1.1163-0.59607-1.7397-0.59607-0.5058 0-1.2194 0.15497-1.2194 0.78979 0 0.0975 0.03241 0.18307 0.09113 0.25845l1.3012 0.57947 0.88049 0.39255c0.56372 0.25122 1.1011 0.48962 1.6341 0.7272l5.214 2.3213c0.172-0.68295 0.258-1.4093 0.258-2.1782 0-2.3243-0.81488-4.2905-2.4439-5.9012-1.6136-1.6286-3.5748-2.4422-5.8841-2.4422z"/>
</g>
</g>
</svg>
