<?xml version="1.0" encoding="UTF-8"?>
<svg version="1.0" viewBox="0 0 120 42" xmlns="http://www.w3.org/2000/svg" xmlnsCc="http://web.resource.org/cc/" xmlnsDc="http://purl.org/dc/elements/1.1/" xmlnsRdf="http://www.w3.org/1999/02/22-rdf-syntax-ns#">
<metadata>
<rdfRDF>
<ccWork rdfAbout="">
<dcFormat>image/svg+xml</dcFormat>
<dcType rdfResource="http://purl.org/dc/dcmitype/StillImage"/>
</ccWork>
</rdfRDF>
</metadata>
<g transform="matrix(.99377 0 0 .99367 -437.12 0)">
<path d="m443.29 0.44873 114.06 0.20312c1.5938 0 3.0176-0.23682 3.0176 3.1802l-0.13965 37.567h-119.82v-37.707c0-1.6846 0.16309-3.2436 2.8789-3.2436z" fill="#aab2ab" nodetypes="ccccccc"/>
<path d="m558.35 0h-116.23c-1.2471 0-2.2617 1.0146-2.2617 2.2612v39.496c0 0.28174 0.22852 0.51025 0.51074 0.51025h119.73c0.28223 0 0.51074-0.22852 0.51074-0.51025v-39.496c0-1.2466-1.0146-2.2612-2.2607-2.2612zm-116.23 1.0215h116.23c0.68359 0 1.2393 0.55615 1.2393 1.2398v27.388h-83.073c-3.0449 5.5054-8.9121 9.2436-15.645 9.2436-6.7344 0-12.6-3.7349-15.643-9.2436h-4.3486v-27.388c-1e-5 -0.68359 0.55663-1.2398 1.2402-1.2398z"/>
<g transform="matrix(.87292 0 0 .87292 50.125 143.21)">
<path cx="296.35416" cy="264.3577" rx="22.939548" ry="22.939548" d="m486.27-141.53c0.00562 8.6802-7.0279 15.721-15.708 15.727-8.6802 5e-3 -15.722-7.0278-15.727-15.708v-0.01904c-0.00562-8.6813 7.0278-15.722 15.708-15.727 8.6813-5e-3 15.723 7.0279 15.727 15.708v0.01898z" fill="#fff" type="arc"/>
<g transform="translate(-289.62 99.065)">
<path d="m772.94-253.4c3.4848 3.4854 5.2278 7.7534 5.2278 12.802 0 5.0494-1.7128 9.2715-5.1383 12.668-3.6359 3.576-7.9318 5.3637-12.89 5.3637-4.8978 0-9.1199-1.7726-12.664-5.3195-3.5464-3.5458-5.3184-7.783-5.3184-12.712 0-4.9285 1.772-9.1959 5.3184-12.802 3.4546-3.4871 7.6767-5.2295 12.664-5.2295 5.0488 0 9.3146 1.7424 12.801 5.2295zm-23.119 2.3443c-2.9467 2.9764-4.4201 6.4629-4.4201 10.462 0 3.9983 1.4589 7.4552 4.3743 10.371 2.9177 2.916 6.389 4.3742 10.418 4.3742s7.5302-1.4728 10.507-4.419c2.8259-2.7358 4.2389-6.1771 4.2389-10.326 0-4.118-1.4365-7.6135-4.3082-10.485-2.8707-2.8707-6.3499-4.3066-10.438-4.3066s-7.5469 1.4432-10.372 4.3289zm7.7539 8.7032c-0.44971-0.98169-1.1232-1.4723-2.0226-1.4723-1.5886 0-2.3829 1.0695-2.3829 3.2086 0 2.1395 0.79431 3.2085 2.3829 3.2085 1.0494 0 1.799-0.52075 2.2487-1.5645l2.2028 1.173c-1.0505 1.8655-2.6257 2.7991-4.7255 2.7991-1.6199 0-2.9176-0.49677-3.892-1.4896-0.97552-0.99341-1.4633-2.3627-1.4633-4.108 0-1.7156 0.50342-3.077 1.5081-4.0856s2.2576-1.512 3.7578-1.512c2.2207 0 3.8093 0.87427 4.7714 2.6223l-2.3851 1.2205zm10.364 0c-0.45087-0.98169-1.1121-1.4723-1.9824-1.4723-1.621 0-2.4321 1.0695-2.4321 3.2086 0 2.1395 0.8111 3.2085 2.4321 3.2085 1.0516 0 1.7877-0.52075 2.2073-1.5645l2.252 1.173c-1.0483 1.8655-2.6212 2.7991-4.7177 2.7991-1.6177 0-2.912-0.49677-3.8865-1.4896-0.97217-0.99341-1.4599-2.3627-1.4599-4.108 0-1.7156 0.49445-3.077 1.4834-4.0856 0.98785-1.0085 2.2453-1.512 3.7735-1.512 2.2162 0 3.8036 0.87427 4.7613 2.6223l-2.431 1.2205z"/>
</g>
</g>
<g enable-background="new    " fill="#fff">
<path d="m488.25 32.956c0.31738 0 0.6084 0.02832 0.87012 0.08398s0.48535 0.14746 0.67285 0.27539c0.18652 0.12695 0.33105 0.29688 0.43457 0.50781 0.10254 0.21191 0.1543 0.47266 0.1543 0.78418 0 0.33594-0.07617 0.61523-0.22949 0.83887-0.15234 0.22461-0.37793 0.40723-0.67773 0.55078 0.41211 0.11816 0.71973 0.3252 0.92285 0.62109s0.30469 0.65234 0.30469 1.0693c0 0.33594-0.06543 0.62695-0.19629 0.87305-0.13086 0.24512-0.30762 0.44629-0.52832 0.60156-0.22168 0.15625-0.47461 0.27148-0.75781 0.3457-0.28418 0.0752-0.5752 0.1123-0.875 0.1123h-3.2363v-6.6641h3.1416v1e-5zm-0.18653 2.6953c0.26074 0 0.47656-0.0625 0.64453-0.18652s0.25195-0.3252 0.25195-0.60449c0-0.15527-0.02832-0.2832-0.08398-0.38184-0.05664-0.09961-0.13086-0.17676-0.22461-0.2334-0.09375-0.05566-0.20117-0.09473-0.32227-0.11621s-0.24805-0.03223-0.37891-0.03223h-1.373v1.5547h1.4863zm0.08497 2.8281c0.14355 0 0.28027-0.01367 0.41113-0.04199s0.24609-0.0752 0.34668-0.13965c0.09961-0.06543 0.17871-0.1543 0.23828-0.2666 0.05957-0.11133 0.08887-0.25488 0.08887-0.42871 0-0.3418-0.09668-0.58594-0.29004-0.73242-0.19336-0.14551-0.44824-0.21875-0.7666-0.21875h-1.5996v1.8281h1.5713z"/>
<path d="m490.96 32.956h1.6436l1.5606 2.6318 1.5508-2.6318h1.6338l-2.4736 4.1064v2.5576h-1.4688v-2.5947l-2.4463-4.0693z"/>
</g>
<g enable-background="new    " fill="#fff">
<path d="m512.83 32.956 2.7842 4.4707h0.01562v-4.4707h1.375v6.6641h-1.4658l-2.7734-4.4619h-0.01855v4.4619h-1.375v-6.6641h1.458z"/>
<path d="m522.57 34.731c-0.08691-0.14062-0.19629-0.26367-0.32715-0.36914s-0.27832-0.18848-0.44336-0.24707c-0.16504-0.05957-0.33789-0.08887-0.51758-0.08887-0.33008 0-0.61035 0.06348-0.84082 0.19141-0.23047 0.12695-0.41699 0.29785-0.55957 0.5127-0.14355 0.21484-0.24805 0.45898-0.31348 0.73242s-0.09766 0.55664-0.09766 0.84863c0 0.28027 0.03223 0.55273 0.09766 0.81641 0.06543 0.26465 0.16992 0.50293 0.31348 0.71387 0.14258 0.21191 0.3291 0.38086 0.55957 0.50879s0.51074 0.19141 0.84082 0.19141c0.44727 0 0.79785-0.13672 1.0498-0.41113 0.25195-0.27344 0.40625-0.63477 0.46191-1.083h1.419c-0.03711 0.41699-0.13379 0.79395-0.28906 1.1299-0.15527 0.33691-0.36133 0.62305-0.61621 0.86035s-0.55371 0.41797-0.89648 0.54297c-0.3418 0.125-0.71875 0.1875-1.1289 0.1875-0.51074 0-0.96973-0.08887-1.3779-0.2666-0.40723-0.17676-0.75195-0.42188-1.0322-0.73242-0.28125-0.31152-0.49609-0.67773-0.64551-1.0977-0.14941-0.4209-0.22461-0.87305-0.22461-1.3594 0-0.49805 0.0752-0.95996 0.22461-1.3867s0.36426-0.79883 0.64551-1.1162c0.28027-0.31738 0.625-0.56641 1.0322-0.74707 0.4082-0.18066 0.86719-0.27051 1.3779-0.27051 0.36719 0 0.71387 0.05273 1.041 0.15918 0.32617 0.10547 0.61914 0.25977 0.87695 0.46289 0.25879 0.20215 0.47168 0.45312 0.63965 0.75195s0.27344 0.6416 0.31738 1.0273h-1.419c-0.02441-0.16797-0.08105-0.32227-0.16796-0.46191z"/>
</g>
<g enable-background="new    " fill="#fff">
<path d="m538.83 32.956 2.7842 4.4707h0.01562v-4.4707h1.375v6.6641h-1.4658l-2.7734-4.4619h-0.01855v4.4619h-1.375v-6.6641h1.458z"/>
<path d="m547.17 32.956c0.43066 0 0.83008 0.06836 1.2012 0.20508s0.69141 0.34277 0.96289 0.61621c0.27051 0.27344 0.48242 0.61621 0.63477 1.0264 0.15332 0.41113 0.22949 0.89355 0.22949 1.4473 0 0.48535-0.0625 0.93262-0.18652 1.3438-0.125 0.41016-0.31348 0.76562-0.56543 1.0635-0.25293 0.29883-0.56738 0.53418-0.94434 0.70508s-0.82031 0.25684-1.332 0.25684h-2.8779v-6.6641h2.8779v-2e-5zm-0.10254 5.4297c0.21191 0 0.41699-0.03418 0.61621-0.10254s0.37695-0.18164 0.53223-0.34082c0.15527-0.1582 0.28027-0.36426 0.37402-0.61914 0.09277-0.25488 0.13965-0.56641 0.13965-0.93262 0-0.33594-0.03223-0.63867-0.09766-0.90918s-0.17285-0.50195-0.32227-0.69434-0.34668-0.34082-0.59277-0.44336-0.5498-0.15332-0.91016-0.15332h-1.0459v4.1953h1.3066v1e-5z"/>
</g>
<g transform="translate(286.15 208.05)">
<g transform="matrix(1.1468 0 0 1.1468 -67.14 -41.897)">
<path cx="475.97119" cy="252.08646" rx="29.209877" ry="29.209877" d="m269.62-131.73c0.00424 4.8269-3.906 8.7419-8.7334 8.7457-4.8265 0.00296-8.7419-3.9069-8.7453-8.733v-0.01276c-0.00342-4.8274 3.9069-8.7423 8.7334-8.7462 4.8265-0.00299 8.7419 3.9069 8.7453 8.7329v0.01321z" fill="#fff" type="arc"/>
<path d="m260.87-141.91c2.8535 0 5.2642 0.98352 7.2338 2.9501 1.9696 1.9675 2.9548 4.3761 2.9548 7.2249 0 2.8484-0.9682 5.2314-2.9038 7.1482-2.0548 2.0182-4.4834 3.0264-7.2849 3.0264-2.7667 0-5.1526-1.0006-7.1563-3.0017-2.0037-2.0002-3.0051-4.3918-3.0051-7.1729 0-2.7816 1.0014-5.1901 3.0051-7.2249 1.9526-1.9666 4.3386-2.9501 7.1563-2.9501zm-7.8725 7.4412c-0.30316 0.85876-0.45557 1.7699-0.45557 2.7339 0 2.2553 0.82428 4.2049 2.4712 5.8505 1.6468 1.6443 3.608 2.4669 5.8833 2.4669 2.2744 0 4.2526-0.83066 5.9335-2.4929 0.56287-0.5437 1.027-1.1368 1.3906-1.7797l-3.8362-1.7078c-0.2597 1.2905-1.4101 2.162-2.7998 2.2642v1.5689h-1.1683v-1.5689c-1.1419-0.01279-2.2446-0.47986-3.0885-1.2181l1.4016-1.4131c0.67444 0.63525 1.3497 0.92007 2.2711 0.92007 0.59692 0 1.2586-0.23331 1.2586-1.0112 0-0.27545-0.10645-0.46707-0.2742-0.61139l-0.97073-0.43088-1.2075-0.5386c-0.59778-0.26654-1.1045-0.49091-1.612-0.71741l-5.1969-2.3145zm7.8989-5.61c-2.3102 0-4.262 0.81366-5.8586 2.4422-0.4343 0.43854-0.81238 0.89624-1.1325 1.3744l3.889 1.732c0.35168-1.0794 1.3769-1.7342 2.6219-1.8066v-1.569h1.1683v1.569c0.80469 0.03876 1.6869 0.25928 2.5563 0.93286l-1.3369 1.3744c-0.49304-0.35001-1.1155-0.5961-1.7388-0.5961-0.50583 0-1.2203 0.155-1.2203 0.79068 0 0.09665 0.03323 0.18179 0.09198 0.25842l1.3012 0.57819 0.88049 0.39258c0.56287 0.25162 1.101 0.49005 1.6332 0.7272l5.214 2.3213c0.172-0.6825 0.25885-1.4089 0.25885-2.1778 0-2.3234-0.81491-4.2909-2.4448-5.9016-1.6136-1.6286-3.5739-2.4422-5.8833-2.4422z"/>
</g>
</g>
<g transform="matrix(.625 0 0 .625 312.85 316.93)">
<path cx="475.97119" cy="252.08646" rx="29.209877" ry="29.209877" d="m387.83-482.97c0.00781 9.411-7.6172 17.047-17.028 17.055-9.4126 0.00543-17.049-7.618-17.055-17.031v-0.02344c-0.00623-9.4118 7.6172-17.048 17.03-17.055 9.411-0.00781 17.047 7.6172 17.053 17.029v0.02582z" fill="#fff" type="arc"/>
<g transform="translate(-23.952 -87.921)">
<path d="m394.48-413.72c-5.1719 0-9.55 1.8031-13.133 5.4133-3.6766 3.7336-5.5141 8.1516-5.5141 13.257 0 5.1032 1.8375 9.4899 5.5141 13.162 3.675 3.6719 8.0548 5.5079 13.133 5.5079 5.1407 0 9.5954-1.8524 13.366-5.5532 3.55-3.5172 5.3282-7.89 5.3282-13.117 0-5.2297-1.8078-9.647-5.4219-13.257-3.6141-3.6102-8.0391-5.4133-13.272-5.4133zm0.04535 3.3586c4.2375 0 7.836 1.4946 10.797 4.4828 2.9907 2.9555 4.4844 6.5642 4.4844 10.829 0 4.2938-1.4625 7.8563-4.3907 10.688-3.0859 3.05-6.7157 4.5727-10.891 4.5727-4.175 0-7.7735-1.5078-10.795-4.5274-3.0219-3.0172-4.5328-6.5961-4.5328-10.733 0-4.1407 1.5266-7.7493 4.5812-10.829 2.9282-2.9883 6.5095-4.4828 10.747-4.4828z"/>
<path d="m401.56-399.48h-13.57v3.2149h13.57v-3.2149zm0 6.0009h-13.57v3.214h13.57v-3.214z"/>
</g>
</g>
<circle cx="491.95" cy="15.314" r="10.806" fill="#fff"/>
<path d="m495.07 12.187c0-0.4165-0.33789-0.75342-0.75391-0.75342h-4.7725c-0.41602 0-0.75391 0.33691-0.75391 0.75342v4.773h1.331v5.6523h3.6172v-5.6523h1.332v-4.773h1e-5z"/>
<circle cx="491.93" cy="9.1724" r="1.6323"/>
<path d="m491.92 3.4077c-3.2314 0-5.9678 1.1274-8.207 3.3838-2.2978 2.333-3.4463 5.0952-3.4463 8.2842s1.1484 5.9321 3.4463 8.227c2.2978 2.2944 5.0342 3.4419 8.207 3.4419 3.2129 0 5.998-1.1567 8.3545-3.4717 2.2197-2.1968 3.3291-4.9297 3.3291-8.1973s-1.1289-6.0283-3.3877-8.2842c-2.2588-2.2563-5.0234-3.3838-8.2959-3.3838zm0.03028 2.0996c2.6484 0 4.8965 0.93359 6.7461 2.8008 1.8701 1.8472 2.8047 4.1035 2.8047 6.7676 0 2.6836-0.91504 4.9111-2.7461 6.6807-1.9277 1.9058-4.1963 2.8584-6.8047 2.8584-2.6104 0-4.8594-0.94287-6.748-2.8291-1.8887-1.8867-2.833-4.123-2.833-6.71 0-2.5864 0.9541-4.8423 2.8623-6.7676 1.8311-1.8672 4.0703-2.8008 6.7188-2.8008z" clip-rule="evenodd" fill-rule="evenodd"/>
</g>
</svg>
