<?xml version="1.0" encoding="UTF-8"?>
<svg version="1.0" viewBox="0 0 120 42" xmlns="http://www.w3.org/2000/svg" xmlnsCc="http://web.resource.org/cc/" xmlnsDc="http://purl.org/dc/elements/1.1/" xmlnsRdf="http://www.w3.org/1999/02/22-rdf-syntax-ns#">
<metadata>
<rdfRDF>
<ccWork rdfAbout="">
<dcFormat>image/svg+xml</dcFormat>
<dcType rdfResource="http://purl.org/dc/dcmitype/StillImage"/>
</ccWork>
</rdfRDF>
</metadata>
<g transform="matrix(.99377 0 0 .99367 -177.69 6.2513e-7)">
<path d="m181.97 0.51074 114.06 0.20264c1.5938 0 3.0176-0.23633 3.0176 3.1807l-0.13965 37.567h-119.82v-37.707c0-1.685 0.16309-3.2436 2.8784-3.2436z" fill="#aab2ab" nodetypes="ccccccc"/>
<path d="m297.3 0h-116.23c-1.2466 0-2.2612 1.0142-2.2612 2.2607v39.497c0 0.28174 0.229 0.51025 0.51074 0.51025h119.73c0.28174 0 0.51074-0.22852 0.51074-0.51025v-39.497c-1e-5 -1.2466-1.0146-2.2607-2.2617-2.2607zm-116.23 1.0215h116.23c0.68408 0 1.2402 0.55566 1.2402 1.2393v27.45h-83.344c-3.0449 5.5059-8.9111 9.2441-15.644 9.2441-6.7354 0-12.6-3.7349-15.644-9.2441h-4.0776v-27.45c1e-5 -0.68359 0.55616-1.2393 1.2398-1.2393z"/>
<g transform="matrix(.87292 0 0 .87292 50.125 143.21)">
<path cx="296.35416" cy="264.3577" rx="22.939548" ry="22.939548" d="m186.9-141.46c0.00558 8.6808-7.0279 15.722-15.708 15.727-8.6802 0.00555-15.722-7.0273-15.727-15.708v-0.01904c-0.00504-8.6808 7.0279-15.722 15.708-15.727 8.6814-0.00555 15.722 7.0273 15.727 15.708v0.01843z" fill="#fff" type="arc"/>
<g transform="translate(-289.62 99.065)">
<path d="m473.58-253.33c3.4854 3.4854 5.2284 7.7539 5.2284 12.802 0 5.0494-1.7128 9.272-5.1383 12.668-3.6353 3.5766-7.9318 5.3643-12.889 5.3643-4.8978 0-9.1199-1.7732-12.665-5.3195-3.5458-3.5458-5.3184-7.783-5.3184-12.713 0-4.9286 1.7726-9.196 5.3184-12.802 3.4552-3.4865 7.6773-5.2295 12.665-5.2295 5.0483-1e-5 9.314 1.743 12.799 5.2295zm-23.118 2.3448c-2.9467 2.9764-4.4195 6.4629-4.4195 10.462 0 3.9984 1.4583 7.4553 4.3742 10.371 2.9165 2.9165 6.3885 4.3742 10.417 4.3742s7.5302-1.4722 10.507-4.4184c2.8259-2.7364 4.2394-6.1771 4.2394-10.326 0-4.118-1.4365-7.6135-4.3077-10.485-2.8707-2.8707-6.3499-4.3066-10.438-4.3066-4.0884 1e-5 -7.5464 1.4432-10.372 4.3289zm7.7545 8.7032c-0.45029-0.98169-1.1243-1.4728-2.0232-1.4728-1.5892 0-2.3834 1.0701-2.3834 3.2091 0 2.1395 0.79428 3.2085 2.3834 3.2085 1.0494 0 1.7989-0.52075 2.2487-1.5645l2.2028 1.173c-1.0499 1.8655-2.6251 2.7985-4.7255 2.7985-1.6199 0-2.9176-0.4967-3.8921-1.489-0.9761-0.99341-1.4627-2.3627-1.4627-4.1085 0-1.715 0.50229-3.0765 1.5075-4.085 1.0052-1.0085 2.257-1.5126 3.7578-1.5126 2.2201 0 3.8098 0.87488 4.7708 2.6229l-2.384 1.2206zm10.363 0c-0.45087-0.98169-1.1114-1.4728-1.9824-1.4728-1.621 0-2.4321 1.0701-2.4321 3.2091 0 2.1395 0.8111 3.2085 2.4321 3.2085 1.0511 0 1.7872-0.52075 2.2073-1.5645l2.252 1.173c-1.0483 1.8655-2.6212 2.7985-4.7177 2.7985-1.6177 0-2.9126-0.4967-3.8865-1.489-0.97217-0.99341-1.4594-2.3627-1.4594-4.1085 0-1.715 0.49445-3.0765 1.4828-4.085 0.98785-1.0085 2.2453-1.5126 3.7735-1.5126 2.2162 0 3.8036 0.87488 4.7613 2.6229l-2.431 1.2206z"/>
</g>
</g>
</g>
</svg>
