<svg xmlns="http://www.w3.org/2000/svg" width="64" height="63" viewBox="0 0 64 63" fill="none">
  <path
    d="M30.836 59.672C46.7617 59.672 59.672 46.7617 59.672 30.836C59.672 14.9103 46.7617 2 30.836 2C14.9103 2 2 14.9103 2 30.836C2 46.7617 14.9103 59.672 30.836 59.672Z"
    fill="#EEEEFF"
    stroke="black"
    stroke-width="3"
  />
  <path
    d="M39.8085 24.9149H38.3191V21.9362C38.3191 17.8256 34.983 14.4894 30.8723 14.4894C26.7617 14.4894 23.4255 17.8256 23.4255 21.9362V24.9149H21.9362C20.2979 24.9149 18.9574 26.2553 18.9574 27.8936V42.7873C18.9574 44.4256 20.2979 45.766 21.9362 45.766H39.8085C41.4468 45.766 42.7872 44.4256 42.7872 42.7873V27.8936C42.7872 26.2553 41.4468 24.9149 39.8085 24.9149ZM30.8723 38.3192C29.234 38.3192 27.8936 36.9787 27.8936 35.3404C27.8936 33.7021 29.234 32.3617 30.8723 32.3617C32.5106 32.3617 33.8511 33.7021 33.8511 35.3404C33.8511 36.9787 32.5106 38.3192 30.8723 38.3192ZM26.4043 24.9149V21.9362C26.4043 19.4638 28.4 17.4681 30.8723 17.4681C33.3447 17.4681 35.3404 19.4638 35.3404 21.9362V24.9149H26.4043Z"
    fill="black"
  />
</svg>
