<svg width="122" height="77" viewBox="0 0 122 77" fill="none" xmlns="http://www.w3.org/2000/svg">
<g clip-path="url(#clip0_1039_2866)">
<path fill-rule="evenodd" clip-rule="evenodd" d="M58.3214 14.3618L47.4937 3.78772C42.8342 -0.762574 35.2458 -0.762574 30.5863 3.78772L3.49463 30.2445C-1.16488 34.7948 -1.16488 42.2052 3.49463 46.7555L30.5863 73.2123C35.2458 77.7626 42.8342 77.7626 47.4937 73.2123L58.3214 62.6382C64.9778 69.6369 74.4743 74.0357 85.0136 74.0357C105.116 74.0357 121.402 58.1313 121.402 38.5C121.402 18.8687 105.116 2.96434 85.0136 2.96434C74.4521 2.96434 64.9556 7.36308 58.3214 14.3618ZM58.3214 14.3618C52.3085 20.6889 48.6253 29.1828 48.6253 38.5C48.6253 47.8172 52.2863 56.3111 58.3214 62.6382L74.5852 46.7555C79.2447 42.2052 79.2447 34.7948 74.5852 30.2445L58.3214 14.3618Z" fill="white"/>
</g>
<defs>
<clipPath id="clip0_1039_2866">
<rect width="122" height="76.25" fill="white" transform="translate(0 0.375)"/>
</clipPath>
</defs>
</svg>
