<svg width="1088" height="861" viewBox="0 0 1088 861" fill="none" xmlns="http://www.w3.org/2000/svg">
<path d="M561.8 268.1C575.165 268.1 586 257.265 586 243.9C586 230.535 575.165 219.7 561.8 219.7C548.435 219.7 537.6 230.535 537.6 243.9C537.6 257.265 548.435 268.1 561.8 268.1Z" fill="#9080FF"/>
<path d="M504.3 600.1C517.665 600.1 528.5 589.265 528.5 575.9C528.5 562.535 517.665 551.7 504.3 551.7C490.935 551.7 480.1 562.535 480.1 575.9C480.1 589.265 490.935 600.1 504.3 600.1Z" fill="#303091"/>
<path d="M117.6 156.3C126.271 156.3 133.3 149.271 133.3 140.6C133.3 131.929 126.271 124.9 117.6 124.9C108.929 124.9 101.9 131.929 101.9 140.6C101.9 149.271 108.929 156.3 117.6 156.3Z" fill="#9080FF"/>
<path d="M428.1 434.3C436.771 434.3 443.8 427.271 443.8 418.6C443.8 409.929 436.771 402.9 428.1 402.9C419.429 402.9 412.4 409.929 412.4 418.6C412.4 427.271 419.429 434.3 428.1 434.3Z" fill="#6544DC"/>
<path d="M491.8 390C500.471 390 507.5 382.971 507.5 374.3C507.5 365.629 500.471 358.6 491.8 358.6C483.129 358.6 476.1 365.629 476.1 374.3C476.1 382.971 483.129 390 491.8 390Z" fill="#9080FF"/>
<path d="M368.9 375.1C376.908 375.1 383.4 368.608 383.4 360.6C383.4 352.592 376.908 346.1 368.9 346.1C360.892 346.1 354.4 352.592 354.4 360.6C354.4 368.608 360.892 375.1 368.9 375.1Z" fill="#C1BDFF"/>
<path d="M298 518.1C306.008 518.1 312.5 511.608 312.5 503.6C312.5 495.592 306.008 489.1 298 489.1C289.992 489.1 283.5 495.592 283.5 503.6C283.5 511.608 289.992 518.1 298 518.1Z" fill="#303091"/>
<path d="M345.2 561.1C353.208 561.1 359.7 554.608 359.7 546.6C359.7 538.592 353.208 532.1 345.2 532.1C337.192 532.1 330.7 538.592 330.7 546.6C330.7 554.608 337.192 561.1 345.2 561.1Z" fill="#C2BDFF"/>
<path d="M488.8 528.4C496.808 528.4 503.3 521.908 503.3 513.9C503.3 505.892 496.808 499.4 488.8 499.4C480.792 499.4 474.3 505.892 474.3 513.9C474.3 521.908 480.792 528.4 488.8 528.4Z" fill="#9080FF"/>
<path d="M379.2 770C387.208 770 393.7 763.508 393.7 755.5C393.7 747.492 387.208 741 379.2 741C371.192 741 364.7 747.492 364.7 755.5C364.7 763.508 371.192 770 379.2 770Z" fill="#C2BDFF"/>
<path d="M271.7 747.2C279.708 747.2 286.2 740.708 286.2 732.7C286.2 724.692 279.708 718.2 271.7 718.2C263.692 718.2 257.2 724.692 257.2 732.7C257.2 740.708 263.692 747.2 271.7 747.2Z" fill="#9080FF"/>
<path d="M260.3 382.1C268.308 382.1 274.8 375.608 274.8 367.6C274.8 359.592 268.308 353.1 260.3 353.1C252.292 353.1 245.8 359.592 245.8 367.6C245.8 375.608 252.292 382.1 260.3 382.1Z" fill="#9080FF"/>
<path d="M206.4 489.8C214.408 489.8 220.9 483.308 220.9 475.3C220.9 467.292 214.408 460.8 206.4 460.8C198.392 460.8 191.9 467.292 191.9 475.3C191.9 483.308 198.392 489.8 206.4 489.8Z" fill="#9080FF"/>
<path d="M18 553.3C26.0081 553.3 32.5 546.808 32.5 538.8C32.5 530.792 26.0081 524.3 18 524.3C9.99187 524.3 3.5 530.792 3.5 538.8C3.5 546.808 9.99187 553.3 18 553.3Z" fill="#C2BDFF"/>
<path d="M130 436C138.008 436 144.5 429.508 144.5 421.5C144.5 413.492 138.008 407 130 407C121.992 407 115.5 413.492 115.5 421.5C115.5 429.508 121.992 436 130 436Z" fill="#6544DC"/>
<path d="M20.2 673.9C28.2081 673.9 34.7 667.408 34.7 659.4C34.7 651.392 28.2081 644.9 20.2 644.9C12.1918 644.9 5.69995 651.392 5.69995 659.4C5.69995 667.408 12.1918 673.9 20.2 673.9Z" fill="#9080FF"/>
<path d="M17.7 808.6C25.7081 808.6 32.2 802.108 32.2 794.1C32.2 786.092 25.7081 779.6 17.7 779.6C9.69182 779.6 3.19995 786.092 3.19995 794.1C3.19995 802.108 9.69182 808.6 17.7 808.6Z" fill="#C2BDFF"/>
<path d="M189.1 719C197.108 719 203.6 712.508 203.6 704.5C203.6 696.492 197.108 690 189.1 690C181.092 690 174.6 696.492 174.6 704.5C174.6 712.508 181.092 719 189.1 719Z" fill="#C2BDFF"/>
<path d="M583.7 717.9C591.708 717.9 598.2 711.408 598.2 703.4C598.2 695.392 591.708 688.9 583.7 688.9C575.692 688.9 569.2 695.392 569.2 703.4C569.2 711.408 575.692 717.9 583.7 717.9Z" fill="#9080FF"/>
<path d="M1066.3 708.4C1074.31 708.4 1080.8 701.908 1080.8 693.9C1080.8 685.892 1074.31 679.4 1066.3 679.4C1058.29 679.4 1051.8 685.892 1051.8 693.9C1051.8 701.908 1058.29 708.4 1066.3 708.4Z" fill="#303091"/>
<path d="M1046.3 566.7L1029.6 550C1025 545.4 1017.7 545.4 1013.1 550L996.4 566.7C991.8 571.3 991.8 578.6 996.4 583.2L1013.1 599.9C1017.7 604.5 1025 604.5 1029.6 599.9L1046.3 583.2C1050.9 578.6 1050.9 571.3 1046.3 566.7Z" fill="#6544DC"/>
<path d="M998.4 243.8L981.7 227.1C977.1 222.5 969.8 222.5 965.2 227.1L948.5 243.8C943.9 248.4 943.9 255.7 948.5 260.3L965.2 277C969.8 281.6 977.1 281.6 981.7 277L998.4 260.3C1003 255.7 1003 248.4 998.4 243.8Z" fill="#9080FF"/>
<path d="M891.5 641L874.8 624.3C870.2 619.7 862.9 619.7 858.3 624.3L841.6 641C837 645.6 837 652.9 841.6 657.5L858.3 674.2C862.9 678.8 870.2 678.8 874.8 674.2L891.5 657.5C896.1 652.9 896.1 645.6 891.5 641Z" fill="#9080FF"/>
<path d="M888.7 373.4C896.708 373.4 903.2 366.908 903.2 358.9C903.2 350.892 896.708 344.4 888.7 344.4C880.692 344.4 874.2 350.892 874.2 358.9C874.2 366.908 880.692 373.4 888.7 373.4Z" fill="#9080FF"/>
<path d="M977.3 468.1C985.308 468.1 991.8 461.608 991.8 453.6C991.8 445.592 985.308 439.1 977.3 439.1C969.292 439.1 962.8 445.592 962.8 453.6C962.8 461.608 969.292 468.1 977.3 468.1Z" fill="#9080FF"/>
<path d="M884.3 136.4C892.308 136.4 898.8 129.908 898.8 121.9C898.8 113.892 892.308 107.4 884.3 107.4C876.292 107.4 869.8 113.892 869.8 121.9C869.8 129.908 876.292 136.4 884.3 136.4Z" fill="#9080FF"/>
<path d="M1069.3 140.6C1079.46 140.6 1087.7 132.362 1087.7 122.2C1087.7 112.038 1079.46 103.8 1069.3 103.8C1059.14 103.8 1050.9 112.038 1050.9 122.2C1050.9 132.362 1059.14 140.6 1069.3 140.6Z" fill="#303091"/>
<path d="M848.7 29.6C856.708 29.6 863.2 23.1081 863.2 15.1C863.2 7.09185 856.708 0.599976 848.7 0.599976C840.692 0.599976 834.2 7.09185 834.2 15.1C834.2 23.1081 840.692 29.6 848.7 29.6Z" fill="#303091"/>
<path d="M612.3 126.5C620.308 126.5 626.8 120.008 626.8 112C626.8 103.992 620.308 97.5 612.3 97.5C604.292 97.5 597.8 103.992 597.8 112C597.8 120.008 604.292 126.5 612.3 126.5Z" fill="#9080FF"/>
<path d="M726.4 69.1C734.408 69.1 740.9 62.6081 740.9 54.6C740.9 46.5918 734.408 40.1 726.4 40.1C718.392 40.1 711.9 46.5918 711.9 54.6C711.9 62.6081 718.392 69.1 726.4 69.1Z" fill="#9080FF"/>
<path d="M827.6 98.2001C837.651 98.2001 845.8 90.0516 845.8 80.0001C845.8 69.9485 837.651 61.8 827.6 61.8C817.548 61.8 809.4 69.9485 809.4 80.0001C809.4 90.0516 817.548 98.2001 827.6 98.2001Z" fill="#C2BDFF"/>
<path d="M675.8 180.1C685.852 180.1 694 171.952 694 161.9C694 151.848 685.852 143.7 675.8 143.7C665.749 143.7 657.6 151.848 657.6 161.9C657.6 171.952 665.749 180.1 675.8 180.1Z" fill="#C2BDFF"/>
<path d="M889.6 74.8C899.651 74.8 907.8 66.6516 907.8 56.6C907.8 46.5485 899.651 38.4 889.6 38.4C879.548 38.4 871.4 46.5485 871.4 56.6C871.4 66.6516 879.548 74.8 889.6 74.8Z" fill="#303091"/>
<path d="M986.4 857.2C994.408 857.2 1000.9 850.708 1000.9 842.7C1000.9 834.692 994.408 828.2 986.4 828.2C978.392 828.2 971.9 834.692 971.9 842.7C971.9 850.708 978.392 857.2 986.4 857.2Z" fill="#A599F1"/>
<path d="M614.6 568.1C624.486 568.1 632.5 560.086 632.5 550.2C632.5 540.314 624.486 532.3 614.6 532.3C604.714 532.3 596.7 540.314 596.7 550.2C596.7 560.086 604.714 568.1 614.6 568.1Z" fill="#C1BDFF"/>
<path d="M590.019 161.345L576.937 148.263C573.344 144.671 567.519 144.671 563.926 148.263L550.845 161.345C547.252 164.938 547.252 170.763 550.845 174.356L563.926 187.437C567.519 191.03 573.344 191.03 576.937 187.437L590.019 174.356C593.612 170.763 593.612 164.938 590.019 161.345Z" fill="#303091"/>
<path d="M469.559 126.43L460.649 117.521C457.057 113.928 451.231 113.928 447.639 117.521L438.729 126.43C435.136 130.023 435.136 135.848 438.729 139.441L447.639 148.351C451.232 151.943 457.057 151.943 460.649 148.351L469.559 139.441C473.152 135.848 473.152 130.023 469.559 126.43Z" fill="#C2BDFF"/>
<path d="M429.399 468.193L417.873 479.718C414.71 482.882 414.71 488.01 417.873 491.174L429.399 502.699C432.562 505.863 437.691 505.863 440.854 502.699L452.38 491.174C455.543 488.01 455.543 482.882 452.38 479.718L440.854 468.193C437.691 465.029 432.562 465.029 429.399 468.193Z" fill="#C2BDFF"/>
<path d="M494.293 628.904L482.767 640.43C479.604 643.593 479.604 648.722 482.767 651.885L494.293 663.411C497.456 666.574 502.585 666.574 505.748 663.411L517.274 651.885C520.437 648.722 520.437 643.593 517.274 640.43L505.748 628.904C502.585 625.741 497.456 625.741 494.293 628.904Z" fill="#303091"/>
<path d="M615.437 601.287L603.911 612.813C600.748 615.976 600.748 621.105 603.911 624.268L615.437 635.794C618.6 638.957 623.729 638.957 626.892 635.794L638.418 624.268C641.581 621.104 641.581 615.976 638.418 612.813L626.892 601.287C623.729 598.124 618.6 598.123 615.437 601.287Z" fill="#303091"/>
<path d="M884.45 523.181L874.339 533.293C871.605 536.027 871.605 540.459 874.339 543.192L884.451 553.304C887.184 556.038 891.616 556.038 894.35 553.304L904.462 543.193C907.195 540.459 907.195 536.027 904.462 533.293L894.35 523.181C891.616 520.448 887.184 520.448 884.45 523.181Z" fill="#C1BDFF"/>
<path d="M304.091 766.205L314.697 755.598C317.596 752.699 322.263 752.699 325.162 755.598L335.769 766.205C338.668 769.104 338.668 773.771 335.769 776.67L325.162 787.277C322.263 790.176 317.596 790.176 314.697 787.277L304.091 776.67C301.191 773.771 301.191 769.104 304.091 766.205Z" fill="#303091"/>
<path d="M300.7 570.7L284.5 554.5C280.1 550.1 272.9 550.1 268.5 554.5L252.3 570.7C247.9 575.1 247.9 582.3 252.3 586.7L268.5 602.9C272.9 607.3 280.1 607.3 284.5 602.9L300.7 586.7C305.1 582.3 305.1 575.1 300.7 570.7Z" fill="#9080FF"/>
<path d="M156.4 530.9L140.2 514.7C135.8 510.3 128.6 510.3 124.2 514.7L108 530.9C103.6 535.3 103.6 542.5 108 546.9L124.2 563.1C128.6 567.5 135.8 567.5 140.2 563.1L156.4 546.9C160.8 542.5 160.8 535.3 156.4 530.9Z" fill="#9080FF"/>
<path d="M125.2 718.2L109 702C104.6 697.6 97.4 697.6 93 702L76.8 718.2C72.4 722.6 72.4 729.8 76.8 734.2L93 750.4C97.4 754.8 104.6 754.8 109 750.4L125.2 734.2C129.6 729.8 129.6 722.6 125.2 718.2Z" fill="#9080FF"/>
<path d="M114.24 822.973L103.845 833.368C101.034 836.18 101.034 840.738 103.845 843.55L114.24 853.945C117.052 856.757 121.61 856.756 124.422 853.945L134.817 843.55C137.628 840.738 137.628 836.18 134.817 833.368L124.422 822.973C121.61 820.162 117.052 820.162 114.24 822.973Z" fill="#9080FF"/>
<path d="M514.6 331C527.303 331 537.6 320.703 537.6 308C537.6 295.297 527.303 285 514.6 285C501.898 285 491.6 295.297 491.6 308C491.6 320.703 501.898 331 514.6 331Z" fill="#303091"/>
<path d="M499.7 466.4C512.403 466.4 522.7 456.103 522.7 443.4C522.7 430.697 512.403 420.4 499.7 420.4C486.997 420.4 476.7 430.697 476.7 443.4C476.7 456.103 486.997 466.4 499.7 466.4Z" fill="#303091"/>
<path d="M361.4 502.3C376.422 502.3 388.6 490.122 388.6 475.1C388.6 460.078 376.422 447.9 361.4 447.9C346.378 447.9 334.2 460.078 334.2 475.1C334.2 490.122 346.378 502.3 361.4 502.3Z" fill="#303091"/>
<path d="M419.7 583.3C434.722 583.3 446.9 571.122 446.9 556.1C446.9 541.078 434.722 528.9 419.7 528.9C404.678 528.9 392.5 541.078 392.5 556.1C392.5 571.122 404.678 583.3 419.7 583.3Z" fill="#9080FF"/>
<path d="M525.9 860.6C538.989 860.6 549.6 849.989 549.6 836.9C549.6 823.811 538.989 813.2 525.9 813.2C512.811 813.2 502.2 823.811 502.2 836.9C502.2 849.989 512.811 860.6 525.9 860.6Z" fill="#C1BDFF"/>
<path d="M599.5 801.7C612.589 801.7 623.2 791.089 623.2 778C623.2 764.911 612.589 754.3 599.5 754.3C586.411 754.3 575.8 764.911 575.8 778C575.8 791.089 586.411 801.7 599.5 801.7Z" fill="#6544DC"/>
<path d="M916.3 778.3C929.389 778.3 940 767.689 940 754.6C940 741.511 929.389 730.9 916.3 730.9C903.211 730.9 892.6 741.511 892.6 754.6C892.6 767.689 903.211 778.3 916.3 778.3Z" fill="#C1BDFF"/>
<path d="M805.8 231.3C819.331 231.3 830.3 220.331 830.3 206.8C830.3 193.269 819.331 182.3 805.8 182.3C792.269 182.3 781.3 193.269 781.3 206.8C781.3 220.331 792.269 231.3 805.8 231.3Z" fill="#C1BDFF"/>
<path d="M673.1 100.9C685.084 100.9 694.8 91.1846 694.8 79.2C694.8 67.2154 685.084 57.5 673.1 57.5C661.115 57.5 651.4 67.2154 651.4 79.2C651.4 91.1846 661.115 100.9 673.1 100.9Z" fill="#303091"/>
<path d="M791.9 50.6C803.885 50.6 813.6 40.8845 813.6 28.8999C813.6 16.9154 803.885 7.19995 791.9 7.19995C779.915 7.19995 770.2 16.9154 770.2 28.8999C770.2 40.8845 779.915 50.6 791.9 50.6Z" fill="#9080FF"/>
<path d="M753.7 138.3C768.556 138.3 780.6 126.256 780.6 111.4C780.6 96.5435 768.556 84.5 753.7 84.5C738.843 84.5 726.8 96.5435 726.8 111.4C726.8 126.256 738.843 138.3 753.7 138.3Z" fill="#6544DC"/>
<path d="M599.4 357C614.256 357 626.3 344.956 626.3 330.1C626.3 315.243 614.256 303.2 599.4 303.2C584.544 303.2 572.5 315.243 572.5 330.1C572.5 344.956 584.544 357 599.4 357Z" fill="#9080FF"/>
<path d="M357 653C372.022 653 384.2 640.822 384.2 625.8C384.2 610.778 372.022 598.6 357 598.6C341.978 598.6 329.8 610.778 329.8 625.8C329.8 640.822 341.978 653 357 653Z" fill="#C2BDFF"/>
<path d="M271.6 687.9C286.622 687.9 298.8 675.722 298.8 660.7C298.8 645.678 286.622 633.5 271.6 633.5C256.578 633.5 244.4 645.678 244.4 660.7C244.4 675.722 256.578 687.9 271.6 687.9Z" fill="#6544DC"/>
<path d="M335.2 734.1C350.222 734.1 362.4 721.922 362.4 706.9C362.4 691.878 350.222 679.7 335.2 679.7C320.178 679.7 308 691.878 308 706.9C308 721.922 320.178 734.1 335.2 734.1Z" fill="#9080FF"/>
<path d="M408.7 722.4C421.292 722.4 431.5 712.192 431.5 699.6C431.5 687.008 421.292 676.8 408.7 676.8C396.108 676.8 385.9 687.008 385.9 699.6C385.9 712.192 396.108 722.4 408.7 722.4Z" fill="#303091"/>
<path d="M433.7 658.8C446.292 658.8 456.5 648.592 456.5 636C456.5 623.408 446.292 613.2 433.7 613.2C421.108 613.2 410.9 623.408 410.9 636C410.9 648.592 421.108 658.8 433.7 658.8Z" fill="#303091"/>
<path d="M273.2 274.4C285.903 274.4 296.2 264.103 296.2 251.4C296.2 238.697 285.903 228.4 273.2 228.4C260.497 228.4 250.2 238.697 250.2 251.4C250.2 264.103 260.497 274.4 273.2 274.4Z" fill="#303091"/>
<path d="M151.5 654.4C164.203 654.4 174.5 644.103 174.5 631.4C174.5 618.697 164.203 608.4 151.5 608.4C138.797 608.4 128.5 618.697 128.5 631.4C128.5 644.103 138.797 654.4 151.5 654.4Z" fill="#303091"/>
<path d="M23.3999 331.4C36.1025 331.4 46.3999 321.103 46.3999 308.4C46.3999 295.697 36.1025 285.4 23.3999 285.4C10.6974 285.4 0.399902 295.697 0.399902 308.4C0.399902 321.103 10.6974 331.4 23.3999 331.4Z" fill="#C2BDFF"/>
<path d="M670.9 273.5L648 284.1C646.5 279.4 639.6 268.5 626.4 260.5C613.2 252.5 615.2 247 611.7 237.7C610.5 234.6 614.7 232.3 616.7 234.9C621.5 241 626.9 246.7 632.3 246.8C638.5 247 647.2 242.5 650.3 237.2C655.2 240.8 662.7 242.7 664.4 248.4C669.9 266.7 670.3 272.5 670.9 273.5Z" fill="#F19B8A"/>
<path d="M773.8 370.8L752.9 357.9L747.4 353.9L724.6 335.6C719.6 331.5 714.9 327 710.8 322C705.6 315.8 692.8 299.8 690 295L677.7 272.8C673.7 266.1 665.6 262.9 658.1 265L652.7 266.5C644 269 638.6 277.7 640.3 286.6C646.6 303.5 656.8 343.2 672.2 359.3L674.9 361.9L726.2 420.4L773.9 370.8H773.8Z" fill="#4931AA"/>
<path d="M849.2 820.9C847.6 811.3 840.7 789.7 835.2 774.8C832.1 766.5 829.5 759.4 828.2 755.2C817.7 719.2 810.8 676.6 808.8 635.3C808.4 627.7 807.8 608.6 807.8 601.1C807.8 592 807.8 582.5 807.2 573.4C806.7 566.6 804.7 557.3 802.9 548.3C800.6 537.2 798.8 537.1 798.9 529.4L792 531H699.3C692.6 564.7 687 600.9 682.8 638.5C678.6 675.5 678 710.4 677.4 747.4C677.2 759.1 677 771.1 676.7 783.2C676.7 786.2 676.4 789.7 676.1 793.5C675.6 800.6 675.2 810.8 675.6 815.8C675.8 817.6 676.9 820.7 677.6 822.5C678.2 824.1 678.4 824.5 678.3 825C678.1 827.9 673.5 829.6 666.5 832.3C658.4 835.4 652.4 839.6 650.5 845.8C649.2 850.1 649.3 853.2 650.9 855.5C652.4 857.7 655.1 859 659 859.4H730.3C737.1 858.5 737.4 854.2 737.1 846.7C737 843.7 736.9 840.8 737.6 838.5C738.1 836.9 739.5 836.3 740.6 835.8C742.3 835 743.9 834.3 744.3 830.7C745.8 818.4 745.2 800.3 744.7 785.7C744.4 776 744 766.8 744.2 758.3C744.4 752 744.8 745.6 745.2 739.4C745.8 730.3 746.4 720.9 746.2 711.8L749.2 684.8L750.9 694.2C756.1 722.5 763.4 752.9 773.4 787.1C774.7 791.7 776.3 796.5 777.8 801.2C779.9 807.8 783.7 819.6 785.4 826.1C785.9 828.2 787.6 829.8 789.6 830.3L791.8 829.2L788.3 830.8C786.5 831.6 784.4 832.4 782.2 833.3C774.2 836.3 769 840 767.7 847.2C767.2 850 767 853.5 769 856.3C770.2 858 772.1 859 774.6 859.4H838.3C842.8 859 845.4 858.1 846.2 854.8C847.1 850.6 846.9 843.3 846.6 836.6C846.5 833.3 846.4 830.3 846.4 827.8V827.1L846.9 826.7C848.6 825.3 849.4 823.2 849 821L849.2 820.9Z" fill="#0D0043"/>
<path d="M606.5 437.7L595.3 457.4C591.8 454 586.5 453.2 571.5 452.5C564.7 452.2 555.6 446.2 548.3 439.8C541 433.4 548.3 433.8 551.3 435.1C558.2 438.1 565.5 440.4 570.2 438.1C575.6 435.3 580.9 427.5 581.1 421.5C587 422.3 593 424.2 597.2 428.3C610.4 441.4 605.6 437 606.5 437.6V437.7Z" fill="#F19B8A"/>
<path d="M568.5 444.4C582.859 444.4 594.5 432.759 594.5 418.4C594.5 404.04 582.859 392.4 568.5 392.4C554.141 392.4 542.5 404.04 542.5 418.4C542.5 432.759 554.141 444.4 568.5 444.4Z" fill="#9080FF"/>
<path d="M679 487.8C676.6 481.9 686.5 473.8 684.7 467.7C682.9 461.7 681.9 459.4 680.2 453.3C679.6 451.1 679.1 449.9 678.3 447.7C669.5 446.7 660.9 444.9 652.4 442.5L620.1 433.2C612.2 430.9 603.7 434.2 599.4 441.3L596.3 446.4C591.3 454.6 593.5 465.2 601.2 470.8C621.7 481.1 660.2 512.3 684.5 501.3C682.6 496.9 681 492.4 679.1 488L679 487.8Z" fill="#4931AA"/>
<path d="M713.3 430.5C714.3 425.6 715 420.6 714.5 415.6C714.3 413.6 713.9 411.6 713.1 409.8C712.4 408.3 711.5 407 710.2 405.9C708.1 404 705.5 402.9 702.8 402.3L701.4 402.9L670.8 447.1C671.3 450 672.8 449.9 673.1 452.8C673.6 459.1 673.9 465.5 674.7 471.7C675.6 478.2 676.9 484.6 678.4 491C679.3 494.8 680.2 498.5 681.1 502.4C682 502.2 682.8 502 683.7 501.6L685.9 500.6C689.8 498.8 693.5 496.7 697 494.4C700.5 492.1 698 493.7 698 493.7C700.6 487.4 708.4 484.1 710.4 477.6C712.1 471.9 714.4 466.4 716.3 460.8C718 456 719.6 448.3 721.2 443.5C722.9 438.4 712.1 435.9 713.2 430.6L713.3 430.5Z" fill="#4931AA"/>
<path d="M802.9 526.9C801.6 519.2 800.2 511.5 798.9 503.7C798.1 486.4 797.8 469 798.1 451.7C798.4 432.9 797.9 413.7 793.6 398.6C793.1 397 793.1 395.2 791.5 394.3C787 399.6 781 398.9 774.2 398.2C766.6 397.3 745 391.8 737.6 389.1C729.7 386.2 736.6 387.3 737.1 380.3C715.6 385.3 709.2 392.4 700.7 404.1C701.3 404.2 702 404.3 702.6 404.5C706 405.3 709.3 406.9 711.6 409.6C714.3 412.8 715 417.2 715.3 421.2C715.6 426.7 714.9 432.2 713.9 437.6C712.8 443.4 711.2 449.2 709.5 454.9C708 460 706.4 465.1 705 470.2C704.1 473.5 703.5 476.8 702.8 480.2C702 483.8 700.2 486.8 699.2 490.4C697.7 496.1 700.2 484.2 698.2 489.8L697.5 491.6L693.4 539.2C693.4 540.7 694.3 542.1 695.8 542.5C730.9 552.2 765.5 549.8 797.5 539.3C799.1 538.8 800.9 538.2 802 536.7C804 534.2 803.5 530.3 803 527L802.9 526.9Z" fill="#4931AA"/>
<path d="M587.9 436.5L586.1 434C584.5 431.9 583 429.7 581.3 427.7C579.6 425.7 576.6 420.5 578.2 418.7C580 416.2 583.3 416.4 585.4 418.2L596.6 428L587.9 436.5Z" fill="#F19B8A"/>
<path d="M585.4 433C585.4 433 588.6 436.3 584.9 439.3C581.6 442.1 586.5 442.2 586.5 442.2L592.1 435.7L588.5 430.1L585.4 432.9V433Z" fill="#F19B8A"/>
<path d="M737.6 454.4C757.703 454.4 774 438.103 774 418C774 397.897 757.703 381.6 737.6 381.6C717.497 381.6 701.2 397.897 701.2 418C701.2 438.103 717.497 454.4 737.6 454.4Z" fill="#4931AA"/>
<path d="M765.3 394.3C765.3 394.3 785.2 425.5 796.4 412.9C787 442.6 779.5 444.6 779.5 444.6L741.3 431.9L742.5 406.3L765.2 394.3H765.3Z" fill="#4931AA"/>
<path d="M748.2 301.2C748.4 303.9 771.6 308 773.3 310.3C775 312.6 756.3 321.3 757.1 324C760.1 333.7 751.4 334.3 745.8 338.4C740.2 342.5 735.6 350.2 733.8 355.7C719.7 352.2 722.9 342.3 725.9 331.9C727.9 324.7 726.8 325.8 726.8 319.5C726.8 313.2 739.8 315.6 748.2 301.2Z" fill="#F19B8A"/>
<path d="M795.3 401.4C790.8 406.7 784.8 406 778 405.3C771.2 404.6 748.8 398.9 741.4 396.2C733 393.1 730.2 386.7 729.7 378.1C729.5 373.8 732.2 360.2 733.7 355.8C735.2 351.4 741 342 745.7 338.5C750.4 335 760 333.8 757 324.1C756.2 321.4 755.1 316.7 753.5 314.5C751.8 312.1 745.7 307.7 745.5 305C744.5 292.8 759.1 288.1 769.9 288.3C793.2 288.6 809.9 310.1 808.1 332.5C806.3 354.9 800.2 357.9 800.1 369.3C800 382.3 805.9 388.8 795.2 401.5L795.3 401.4Z" fill="#0D0043"/>
<path d="M700 491L754.1 429L718.1 387.2L689.2 421.5L700 491Z" fill="#4931AA"/>
<path d="M643.2 257.1C657.946 257.1 669.9 245.146 669.9 230.4C669.9 215.654 657.946 203.7 643.2 203.7C628.454 203.7 616.5 215.654 616.5 230.4C616.5 245.146 628.454 257.1 643.2 257.1Z" fill="#C2BDFF"/>
<path d="M695.7 542.4C698 543 700.2 543.6 702.5 544.1L721.6 476.4C722.4 473.4 718.7 471.3 716.5 473.6L697.2 494.2L693.3 539.1C693.3 540.6 694.2 542 695.7 542.4Z" fill="#0D0043"/>
</svg>
