<?xml version="1.0" encoding="UTF-8"?><svg id="Layer_2" xmlns="http://www.w3.org/2000/svg" viewBox="0 0 46.02 34.4">
  <defs>
    <style>
      .cls-1 {
        fill: #fff;
      }
      .cls-2 {
        fill: #ab1e23;
      }
      .cls-3 {
        fill: #160f34;
      }
    </style>
  </defs>
  <g id="Layer_1-2">
    <g>
      <rect class="cls-1" width="46.02" height="34.35" />
      <rect class="cls-2" x="20.46" width="5.09" height="34.35" />
      <rect class="cls-2" y="14.12" width="46.02" height="6.01" />
      <polygon class="cls-3" points="19.12 0 2.58 0 19.12 12.12 19.12 0" />
      <polygon class="cls-2" points="11.08 12.44 15.89 12.44 0 .53 0 4.24 11.08 12.44" />
      <polygon class="cls-3" points="0 6.48 8.19 12.44 0 12.44 0 6.48" />
      <polygon class="cls-3" points="26.9 0 43.44 0 26.9 12.12 26.9 0" />
      <polygon class="cls-2" points="34.94 12.44 30.13 12.44 46.02 .53 46.02 4.24 34.94 12.44" />
      <polygon class="cls-3" points="46.02 6.48 37.83 12.44 46.02 12.44 46.02 6.48" />
      <polygon class="cls-3" points="19.12 34.4 2.58 34.4 19.12 22.28 19.12 34.4" />
      <polygon class="cls-2" points="11.08 21.96 15.89 21.96 0 33.86 0 30.15 11.08 21.96" />
      <polygon class="cls-3" points="0 27.91 8.19 21.96 0 21.96 0 27.91" />
      <polygon class="cls-3" points="26.9 34.38 43.44 34.38 26.9 22.26 26.9 34.38" />
      <polygon class="cls-2" points="34.94 21.94 30.13 21.94 46.02 33.84 46.02 30.14 34.94 21.94" />
      <polygon class="cls-3" points="46.02 27.89 37.83 21.94 46.02 21.94 46.02 27.89" />
    </g>
  </g>
</svg>
