<svg width="271" height="289" viewBox="0 0 271 289" fill="none" xmlns="http://www.w3.org/2000/svg">
<path d="M157.11 175.18C145.94 157.62 143.06 158.62 129.29 152.84C125.86 151.4 122.53 149.73 119.35 147.78C117.7 146.77 116.5 145.92 113.4 143.75C109.97 141.34 106.24 140.62 102.44 139.28C97.0701 137.27 90.54 131.8 90.07 131.49C75.8 123.26 77.01 144.08 82.63 151.6C87.72 158.72 97.86 163.57 104.58 168.79L111.79 231.33C123.35 234.44 136.36 232.64 148.06 235.23C169.4 240.23 185.78 258.47 204.53 268.91C211.97 273.48 219.97 227.03 219.77 221.03C220 212.55 188.67 200.71 180.85 197.35C170.46 193.65 163.25 183.9 157.11 175.18Z" fill="#9C88FF"/>
<path d="M225.92 286.06L175.86 259.42C165.24 253.77 160.94 240.77 166.1 229.9L176.72 207.5C181.47 197.47 192.83 192.41 203.46 195.56L258.78 211.98C268.74 214.94 273.73 226.06 269.33 235.47L249.28 278.27C245.15 287.07 234.49 290.62 225.92 286.06Z" fill="#5332F8"/>
<path d="M76.75 142.88C84.42 143.76 88.53 142.39 91.42 146.55C94.31 150.71 87.91 161.91 87.46 164.27C87.22 165.52 77.68 162.15 73.51 160.8C59.71 156.34 60.9 143.16 76.75 142.88Z" fill="#9F8BFE"/>
<path d="M116.75 237.75L109.99 239.63C106.53 240.6 102.93 238.57 101.97 235.11L67.9103 112.99C66.9403 109.53 68.9703 105.93 72.4303 104.97L79.1903 103.09C82.6503 102.12 86.2503 104.15 87.2103 107.61L121.27 229.73C122.24 233.19 120.22 236.78 116.75 237.75Z" fill="#5332F8"/>
<path d="M65.4903 130.91C101.621 130.91 130.91 101.62 130.91 65.4898C130.91 29.3594 101.621 0.0698242 65.4903 0.0698242C29.3598 0.0698242 0.0703125 29.3594 0.0703125 65.4898C0.0703125 101.62 29.3598 130.91 65.4903 130.91Z" fill="#915C4D"/>
<path d="M65.4903 130.91C101.621 130.91 130.91 101.62 130.91 65.4898C130.91 29.3594 101.621 0.0698242 65.4903 0.0698242C29.3598 0.0698242 0.0703125 29.3594 0.0703125 65.4898C0.0703125 101.62 29.3598 130.91 65.4903 130.91Z" fill="#4A32AE"/>
<path d="M65.4903 130.91C101.621 130.91 130.91 101.62 130.91 65.4898C130.91 29.3594 101.621 0.0698242 65.4903 0.0698242C29.3598 0.0698242 0.0703125 29.3594 0.0703125 65.4898C0.0703125 101.62 29.3598 130.91 65.4903 130.91Z" fill="#4A32AE"/>
<path d="M65.4903 130.91C101.621 130.91 130.91 101.62 130.91 65.4898C130.91 29.3594 101.621 0.0698242 65.4903 0.0698242C29.3598 0.0698242 0.0703125 29.3594 0.0703125 65.4898C0.0703125 101.62 29.3598 130.91 65.4903 130.91Z" fill="#4A32AE"/>
<path d="M65.49 130.98C101.659 130.98 130.98 101.659 130.98 65.49C130.98 29.3209 101.659 0 65.49 0C29.3209 0 0 29.3209 0 65.49C0 101.659 29.3209 130.98 65.49 130.98Z" fill="#5332F8"/>
<path d="M65.4895 122.46C96.9532 122.46 122.46 96.9537 122.46 65.49C122.46 34.0264 96.9532 8.52002 65.4895 8.52002C34.0259 8.52002 8.51953 34.0264 8.51953 65.49C8.51953 96.9537 34.0259 122.46 65.4895 122.46Z" fill="#D4CAFF"/>
<path d="M113.41 143.75C109.98 141.34 105.72 140.11 102.12 138.3C98.19 136.34 97.59 135.02 95.78 133.09C94.34 131.56 92.8899 130.02 90.8899 129.36C79.9099 125.72 81.01 144.28 86.19 151.22C90.87 157.76 97.06 162.43 102.97 167.52C104.52 168.86 104.95 170.15 105.61 172.27L117.63 146.68C116.59 145.99 115.39 145.14 113.41 143.75Z" fill="#9C88FF"/>
<path opacity="0.55" d="M89.4399 129.54C89.2399 130.14 89.1299 130.78 89.1299 131.42C89.1299 132.05 89.2399 132.68 89.4299 133.29C89.6299 133.91 89.9199 134.49 90.2799 135.03C90.4599 135.3 90.6699 135.56 90.8899 135.8C90.9999 135.92 91.1199 136.04 91.2399 136.16C91.3899 136.3 91.5599 136.42 91.7299 136.53C92.3599 136.96 93.0399 137.3 93.7699 137.52C94.4499 137.73 95.1499 137.83 95.8499 137.86C96.5599 137.89 97.2599 137.85 97.9699 137.78C98.6999 137.7 99.4199 137.59 100.14 137.48C100.25 137.46 100.36 137.45 100.47 137.43C98.0699 135.96 97.3899 134.79 95.8999 133.2C94.4599 131.67 93.0099 130.13 91.0099 129.47C90.5199 129.31 90.0599 129.2 89.6199 129.13C89.5599 129.26 89.4899 129.4 89.4399 129.54Z" fill="white"/>
<path d="M103.85 208.95C97.39 209.46 90.44 208.39 83.84 206.35C81.9 205.75 80.3 206.39 79.51 208.41C75.76 219.16 86.9699 224.27 97.6299 223.48C99.6399 223.33 104.19 222.32 106.05 221.68C110.09 220.3 114.23 217.72 113.64 213.49C112.78 209.57 110.48 208.43 103.85 208.95Z" fill="#9C88FF"/>
<path d="M102.57 209.14C95.7401 209.58 89.5101 209.95 82.7901 208.03C74.9901 205.94 65.8901 196.68 71.2901 188.36C71.7401 187.68 72.2701 187.48 72.9701 188C76.3001 190.52 80.1601 191.41 84.1001 191.92C90.8701 191.73 97.6101 191.6 104.17 193.63C105.8 194.13 107.34 194.96 108.59 196.17C114.24 201.57 111.1 208.55 102.57 209.14Z" fill="#9C88FF"/>
<path d="M82.5196 165.43C84.5396 173.22 91.3497 173.78 96.9397 177.14C103.23 180.21 104.74 191.12 96.1697 192.43C86.8297 193.61 70.7396 192.85 68.7096 180.98C67.3996 172.75 75.1296 166.88 82.5196 165.43Z" fill="#9C88FF"/>
<path opacity="0.55" d="M104.62 197.27H101.11C99.8398 197.27 98.7998 198.45 98.7998 199.9V203.76C98.7998 205.21 99.8298 206.39 101.11 206.39H104.62C106.83 206.39 108.62 204.35 108.62 201.83C108.62 199.31 106.83 197.27 104.62 197.27Z" fill="white"/>
<path opacity="0.55" d="M96.85 181.89L93.4 181.27C92.15 181.05 90.92 182.02 90.67 183.45L89.99 187.25C89.73 188.68 90.54 190.02 91.79 190.25L95.24 190.87C97.41 191.26 99.53 189.57 99.98 187.09C100.42 184.6 99.02 182.28 96.85 181.89Z" fill="white"/>
<path opacity="0.55" d="M106.47 210.89L103.14 211.98C101.93 212.38 101.32 213.82 101.77 215.2L102.97 218.87C103.42 220.25 104.77 221.05 105.98 220.65L109.31 219.56C111.41 218.87 112.47 216.38 111.69 213.98C110.91 211.58 108.57 210.2 106.47 210.89Z" fill="white"/>
<path d="M41.3303 44.4102C46.4445 44.4102 50.5903 40.2643 50.5903 35.1501C50.5903 30.036 46.4445 25.8901 41.3303 25.8901C36.2162 25.8901 32.0703 30.036 32.0703 35.1501C32.0703 40.2643 36.2162 44.4102 41.3303 44.4102Z" fill="white"/>
<path d="M28.9701 52.8303C31.8088 52.8303 34.1101 50.5291 34.1101 47.6903C34.1101 44.8516 31.8088 42.5503 28.9701 42.5503C26.1313 42.5503 23.8301 44.8516 23.8301 47.6903C23.8301 50.5291 26.1313 52.8303 28.9701 52.8303Z" fill="white"/>
</svg>
