<svg width="250" height="300" viewBox="0 0 250 300" fill="none" xmlns="http://www.w3.org/2000/svg">
<path d="M245.63 22.114C244.96 21.884 244.35 21.514 243.83 21.034L243.57 20.794C241.35 18.724 241.43 15.174 243.75 13.214L244.02 12.984C247.03 10.434 246.1 5.57398 242.36 4.30398L230.8 0.383983C229.88 0.0739833 228.87 0.273988 228.13 0.903988L220.81 7.24398C219.73 8.18398 218.1 8.12399 217.09 7.11399L216.62 6.64399C215.33 5.35399 213.15 5.67399 212.28 7.28399C210.91 9.83399 207.04 8.78399 207.14 5.89399L207.25 2.834C207.32 0.743996 205.12 -0.656009 203.26 0.313991L199.23 2.40399C198.9 2.57399 198.61 2.81399 198.38 3.09399L189.94 13.404C189.56 13.864 189.34 14.444 189.32 15.044L189.28 16.324C189.13 20.824 185.3 24.324 180.8 24.054L179.57 23.984C178.02 23.894 176.47 24.254 175.12 25.024L171.92 26.854C170.63 27.594 169.09 27.754 167.67 27.294L162.52 25.624C159.98 24.804 157.24 26.004 156.11 28.414L154.13 32.654C153.55 33.904 152.49 34.884 151.2 35.364L145.35 37.554C145.04 37.674 144.76 37.864 144.55 38.114L140.69 42.524C140.27 43.004 140.1 43.664 140.25 44.294L141.64 50.304C141.89 51.404 141.18 52.504 140.07 52.724L130.32 54.624C129.85 54.714 129.44 54.964 129.14 55.334L124.67 60.924C123.51 62.374 124.79 64.494 126.62 64.144L133.4 62.824C133.65 62.774 133.9 62.774 134.15 62.824C135.96 63.164 136.39 65.564 134.81 66.504L128.72 70.164C126.7 71.374 125.51 73.604 125.63 75.954C125.73 77.924 124.91 79.834 123.41 81.114L119.26 84.664C118.75 85.104 118.31 85.624 117.96 86.194L112.58 95.054L104.94 110.344L100.4 113.154C98.69 114.214 97.64 116.084 97.64 118.104V123.824C97.64 124.334 97.57 124.834 97.44 125.324L95.4 132.964C95.05 134.284 94.24 135.444 93.12 136.234L87.34 140.274C85.55 141.524 84.62 143.664 84.91 145.824C85.25 148.294 83.98 150.694 81.75 151.814L77.02 154.174C76.18 154.594 75.46 155.204 74.91 155.964L68.72 164.514C68.54 164.764 68.38 165.024 68.25 165.304L66.12 169.764C65.22 171.644 63.27 172.784 61.19 172.654L58.05 172.454C55.46 172.294 53.17 174.094 52.7 176.644C52.35 178.584 50.91 180.144 49.01 180.664L36.93 183.934C35.96 184.194 35.1 184.734 34.43 185.484L25.02 196.144L15.59 199.024C13.7 199.604 12.28 201.184 11.9 203.124L9.66 214.804C9.47 215.774 9.01999 216.674 8.35999 217.404L3.29999 222.944C2.50999 223.804 2.02998 224.904 1.91998 226.074L0.570007 241.244C0.430007 242.824 0.989985 244.374 2.10999 245.494L6.07001 249.454C7.96001 251.354 8.16 254.354 6.53 256.484L3.88998 259.924C2.41998 261.844 2.41999 264.524 3.89999 266.444C5.74999 268.844 5.24 272.294 2.78 274.054L2.23999 274.444C0.83999 275.444 0 277.064 0 278.794V281.784C0 283.224 0.579985 284.604 1.60999 285.614L11.07 294.834C12.68 296.404 14.73 297.424 16.95 297.754L29.21 299.604C30.98 299.874 32.79 299.514 34.32 298.584L41.84 294.024C42.87 293.394 43.74 292.534 44.38 291.514L47.88 285.874C49.02 284.044 50.88 282.774 53 282.384L57.16 281.614C60.53 280.994 63.08 278.204 63.4 274.784L64.34 264.484C64.48 262.914 66.72 262.764 67.07 264.304L70.36 278.794C70.62 279.714 71.65 280.174 72.5 279.744L75.14 278.424C75.85 278.064 76.72 278.324 77.13 279.004L79.22 282.534C80 283.854 82.03 283.314 82.05 281.784L82.28 266.814C82.3 265.404 82.94 264.074 84.04 263.174L89.61 258.594C91.09 257.384 91.71 255.404 91.18 253.564L88.23 243.224C87.77 241.624 88.18 239.894 89.3 238.664L95.23 232.164C96.83 230.414 96.91 227.754 95.42 225.904L90.54 219.844C89.89 219.034 89.52 218.034 89.48 217.004L88.57 191.864C88.54 190.934 88.65 190.004 88.9 189.104L93.02 174.324C93.81 171.474 95.95 169.194 98.74 168.214L104.98 166.024C109.73 164.354 112.21 159.124 110.49 154.394C109.88 152.704 109.78 150.874 110.21 149.134L115.66 127.074C116.29 124.514 118.14 122.424 120.6 121.474C123.57 120.334 125.59 117.554 125.77 114.374L125.97 110.594C126.09 108.344 127.15 106.244 128.89 104.804L130.48 103.494C132.64 101.704 133.72 98.934 133.34 96.154L132.7 91.564C132.42 89.584 133.09 87.584 134.51 86.174L137.42 83.264C138.26 82.424 138.85 81.364 139.12 80.204L141.08 71.804L145.27 72.114C148.06 72.324 150.53 70.314 150.9 67.544C151.29 64.654 153.94 62.624 156.83 63.004L160.66 63.514C163.9 63.944 166.75 61.364 166.64 58.094L166.59 56.694C166.54 55.294 167.05 53.934 168.01 52.904L171.06 49.644C171.2 49.494 171.33 49.334 171.45 49.174L172.26 48.064C174.21 45.414 178.09 45.174 180.35 47.574L183.93 51.364C186.12 53.684 189.47 54.484 192.47 53.404L195.12 52.454C195.7 52.244 196.33 52.234 196.91 52.434L203.31 54.564C204.42 54.934 205.64 54.554 206.35 53.624L213.15 44.644C213.47 44.224 213.66 43.714 213.7 43.184L214.83 27.014C214.92 25.664 215.99 24.584 217.34 24.484L228.12 23.644C231.82 23.354 235.21 25.714 236.23 29.284L236.72 31.014C237.84 34.924 242.86 35.994 245.48 32.894L247.77 30.184C250.14 27.464 248.99 23.284 245.63 22.114Z" fill="#9078FC"/>
</svg>
